<svg id="Layer_1" data-name="Layer 1" xmlns="http://www.w3.org/2000/svg" viewBox="0 0 64.23 60.9">
  <g>
    <path d="M55.1,61.93c2.46-1.36,4-3.3,6.17-5.46,1.85-1.89,4-3.53,5.23-5.47,1-1.54,1.69-3.4,2.61-5.22a33.16,33.16,0,0,0,2.14-5.7c2.87-10.25-2-18.78-5.82-24.1A25.42,25.42,0,0,0,57,8.74,32.18,32.18,0,0,0,39.55,4.58,42.65,42.65,0,0,0,30.76,6,37.6,37.6,0,0,0,23.4,8.62c-3.06,1.59-6.18,4.83-8.43,7.12a24.49,24.49,0,0,0-5.58,8.91c-3,9-1.18,20.12,2.14,27,2.92,6,7.71,9,14.25,11.51C34.62,66.51,47.15,66.29,55.1,61.93Z" transform="translate(-7.88 -4.55)" fill="#210404" fill-rule="evenodd"/>
    <path d="M47.62,6.84c-.07.53-.38.8-.36,1.42-3-.33-6-1-9.49-.59a6,6,0,0,1-.24-1.19A53.38,53.38,0,0,1,47.62,6.84Z" transform="translate(-7.88 -4.55)" fill="#fff" fill-rule="evenodd"/>
    <path d="M36.82,7.79c-.89,0-1.67.15-2.5.24,0-.51-.31-.64-.23-1.19a12.14,12.14,0,0,0,2.37-.36C36.92,6.55,36.87,7.58,36.82,7.79Z" transform="translate(-7.88 -4.55)" fill="#fff" fill-rule="evenodd"/>
    <path d="M33.14,7.08c.4.07.31.64.35,1.07-2.67.79-5.79,1.29-8.07,2.61-.61.35-1.3,1.4-2,.71C25.76,9.12,29.32,8,33.14,7.08Z" transform="translate(-7.88 -4.55)" fill="#fff" fill-rule="evenodd"/>
    <path d="M48.21,7.08c.8.07,1.26.48,2,.59,0,.6-.38.89-.47,1.43-.71,0-1.08-.43-1.78-.48A3.94,3.94,0,0,1,48.21,7.08Z" transform="translate(-7.88 -4.55)" fill="#fff" fill-rule="evenodd"/>
    <path d="M44.89,8.62c0,.28-.19.45-.12.83-1.84.2-4.5-.38-6.53,0-.06-.45-.37-.66-.36-1.19A18.24,18.24,0,0,1,44.89,8.62Z" transform="translate(-7.88 -4.55)" fill="#fff" fill-rule="evenodd"/>
    <path d="M60.09,13.13c-.75.13-1.07-.63-1.67-1a48.27,48.27,0,0,0-7.83-2.73A3.3,3.3,0,0,1,50.94,8,24.27,24.27,0,0,1,60.09,13.13Z" transform="translate(-7.88 -4.55)" fill="#fff" fill-rule="evenodd"/>
    <path d="M37.05,8.26c0,.49.21.75.12,1.31-1-.09-1.55.19-2.49.12a10.43,10.43,0,0,0-.24-1.19A19.15,19.15,0,0,1,37.05,8.26Z" transform="translate(-7.88 -4.55)" fill="#fff" fill-rule="evenodd"/>
    <path d="M59.49,14.08c-.14.18-.34.29-.35.6-3.91-2.31-8.85-3.59-13.66-5a4.8,4.8,0,0,1,.24-1.07,67.34,67.34,0,0,1,8.9,2.73C56.3,12,58.55,12.58,59.49,14.08Z" transform="translate(-7.88 -4.55)" fill="#fff" fill-rule="evenodd"/>
    <path d="M33.61,8.74c-.09.49.18.61.12,1.07a25.86,25.86,0,0,0-9.14,3.08c-.08-.27-.4-.31-.48-.59C26.34,10.17,29.94,9.42,33.61,8.74Z" transform="translate(-7.88 -4.55)" fill="#fff" fill-rule="evenodd"/>
    <path d="M41.33,11C33.83,23.56,25.83,35.62,18.18,48c-.77-.83-1-2.2-1.67-3.33-.19-.32-.59-.53-.71-.83a14.89,14.89,0,0,1-.71-4.51A25,25,0,0,1,17,35.81c2-3.41,4.4-6.77,6.29-10.09,2.89-5.08,5.53-9.42,8.08-13.78A45,45,0,0,1,41.33,11Z" transform="translate(-7.88 -4.55)" fill="#fff" fill-rule="evenodd"/>
    <path d="M43.46,11.11c2.44.1,4,1.05,6.18,1.43C41.41,26.71,32.42,40.12,24.11,54.21a13.52,13.52,0,0,1-3-2.14c-.69-.6-2.34-1.74-2.37-2.73s2.28-3.62,3.09-4.75c3.18-4.42,6.58-9.35,9.26-14,1.91-3.33,4.32-6.27,6.29-9.26C39,19,40.57,16.61,41.92,14.08,42.47,13.06,42.64,11.85,43.46,11.11Z" transform="translate(-7.88 -4.55)" fill="#fff" fill-rule="evenodd"/>
    <path d="M22.57,11.94c.28,0,.27.37.47.48a14,14,0,0,1-2.13,1.66.59.59,0,0,0-.36-.35C21,12.87,22,12.61,22.57,11.94Z" transform="translate(-7.88 -4.55)" fill="#fff" fill-rule="evenodd"/>
    <path d="M15.21,36.4c-.76-13.23,5.22-20.74,14.72-24.1C25.11,20.43,20.11,28.36,15.21,36.4Z" transform="translate(-7.88 -4.55)" fill="#fff" fill-rule="evenodd"/>
    <path d="M57.59,15.74Q50.75,28.37,42.87,40c-.86-.05-.8-1-1.9-1.07a2.06,2.06,0,0,0-1.9,1.31c-.48,1.35.52,3.25.24,4.63-.21,1.08-1.68,1.55-2.14,2.49a6.32,6.32,0,0,0-.35,2.38c-1.32,2.56-3.17,4.58-4.4,7.24a28.94,28.94,0,0,1-7.36-2.14c4-7,8.35-13.95,12.59-20.89,3.68-6,7.52-12,11.16-18,.57-.95,1.06-2.54,1.78-3A32.35,32.35,0,0,1,57.59,15.74Z" transform="translate(-7.88 -4.55)" fill="#fff" fill-rule="evenodd"/>
    <path d="M23.76,13.49c-.82.37-1.35,1-2.14,1.42a1.89,1.89,0,0,0-.36-.47C21.89,14,23.19,12.16,23.76,13.49Z" transform="translate(-7.88 -4.55)" fill="#fff" fill-rule="evenodd"/>
    <path d="M60.68,13.49a.9.9,0,0,1,.71.71C61.15,14.36,60.56,14.06,60.68,13.49Z" transform="translate(-7.88 -4.55)" fill="#fff" fill-rule="evenodd"/>
    <path d="M19.84,14.2c.24,0,.23.32.47.36a5.33,5.33,0,0,1-2.25,1.9C18,15.47,19.33,15,19.84,14.2Z" transform="translate(-7.88 -4.55)" fill="#fff" fill-rule="evenodd"/>
    <path d="M60.2,14.44c.38-.06.32.32.6.35,0,.45-.45.51-.48,1-.37.06-.31-.32-.59-.35C59.81,15,60.1,14.81,60.2,14.44Z" transform="translate(-7.88 -4.55)" fill="#fff" fill-rule="evenodd"/>
    <path d="M61.87,14.68a.44.44,0,0,1,.47.47C62.12,15.38,61.81,15.07,61.87,14.68Z" transform="translate(-7.88 -4.55)" fill="#fff" fill-rule="evenodd"/>
    <path d="M21,15.39c-.35.91-1.39,1.14-1.78,2-.46,0-.47-.49-.84-.6C19.14,16.31,20.26,14.36,21,15.39Z" transform="translate(-7.88 -4.55)" fill="#fff" fill-rule="evenodd"/>
    <path d="M61.39,15.63c.19,0,.21.11.36.11,0,.45-.38.58-.48,1C60.61,16.47,61.25,16,61.39,15.63Z" transform="translate(-7.88 -4.55)" fill="#fff" fill-rule="evenodd"/>
    <path d="M62.82,15.63c.23.14.64.4.35.71A.42.42,0,0,1,62.82,15.63Z" transform="translate(-7.88 -4.55)" fill="#fff" fill-rule="evenodd"/>
    <path d="M63.05,22.75c-6.17,11.79-13.19,22.74-19.7,34.19.19-1.57-.26-3.25.11-5,.23-1,1.15-1.7,1.07-3.44A3.89,3.89,0,0,0,43,45.42c.24-.35.07-1.12.12-1.66,2.23-.65,6.09.31,6.53-2.14-.49-2-2.67-2.35-5.23-2C49,31.8,53.94,24.36,58.19,16.22,60.5,17.7,61.7,20.3,63.05,22.75Z" transform="translate(-7.88 -4.55)" fill="#fff" fill-rule="evenodd"/>
    <path d="M62.22,16.46c.28,0,.13.34.36.35-.15.37-.26.77-.71.83C61.57,17.12,62.09,16.89,62.22,16.46Z" transform="translate(-7.88 -4.55)" fill="#fff" fill-rule="evenodd"/>
    <path d="M63.65,16.69c1.23.39-.54,1.35,0,0Z" transform="translate(-7.88 -4.55)" fill="#fff" fill-rule="evenodd"/>
    <path d="M17.23,16.81c.67.16.74.92,1.3,1.19-.28.78-1,1.14-1.3,1.9a3.22,3.22,0,0,1-1.43-1.19C16.17,18,16.81,17.5,17.23,16.81Z" transform="translate(-7.88 -4.55)" fill="#fff" fill-rule="evenodd"/>
    <path d="M64.36,17.64c.53,0,.69,1.09,0,1.07A1,1,0,0,1,64.36,17.64Z" transform="translate(-7.88 -4.55)" fill="#fff" fill-rule="evenodd"/>
    <path d="M63.29,17.88c0,.52-.17.85-.59.95C62.3,18.41,63,17.61,63.29,17.88Z" transform="translate(-7.88 -4.55)" fill="#fff" fill-rule="evenodd"/>
    <path d="M63.77,18.83c.27,0,.13.34.35.36a3.8,3.8,0,0,1-.59.95C62.93,19.69,63.44,19.25,63.77,18.83Z" transform="translate(-7.88 -4.55)" fill="#fff" fill-rule="evenodd"/>
    <path d="M65.19,18.83c.16,0,.19.21.36.24,0,.42-.2.75-.6.83C64.68,19.42,65,19.19,65.19,18.83Z" transform="translate(-7.88 -4.55)" fill="#fff" fill-rule="evenodd"/>
    <path d="M15,19.54c.7.26,1.49.9,1.43,1.55C15.75,20.77,14.74,20.36,15,19.54Z" transform="translate(-7.88 -4.55)" fill="#fff" fill-rule="evenodd"/>
    <path d="M65.9,19.9c.61.33-.2.87-.23,1.3C65.11,20.82,65.75,20.28,65.9,19.9Z" transform="translate(-7.88 -4.55)" fill="#fff" fill-rule="evenodd"/>
    <path d="M64.36,20c.1.05.21.1.24.24.11.62-.4.62-.48,1.06C63.58,21,64.14,20.33,64.36,20Z" transform="translate(-7.88 -4.55)" fill="#fff" fill-rule="evenodd"/>
    <path d="M14.26,20.61a.33.33,0,0,1,.24.36c-1.8,2.36-2.59,5.78-3.33,9.5-.06.29.15,1.29-.59,1.18C10.21,27.38,12.16,23.29,14.26,20.61Z" transform="translate(-7.88 -4.55)" fill="#fff" fill-rule="evenodd"/>
    <path d="M14.73,21.09c.49.11.64.55,1.07.71a21.42,21.42,0,0,0-3.08,10h-1A23,23,0,0,1,14.73,21.09Z" transform="translate(-7.88 -4.55)" fill="#fff" fill-rule="evenodd"/>
    <path d="M64.83,21.32c.83.17.19.87,0,1.31C64.22,22.35,64.64,21.74,64.83,21.32Z" transform="translate(-7.88 -4.55)" fill="#fff" fill-rule="evenodd"/>
    <path d="M67.09,21.8c.29.41-.41.85-.47,1.3C66.33,22.69,67,22.25,67.09,21.8Z" transform="translate(-7.88 -4.55)" fill="#fff" fill-rule="evenodd"/>
    <path d="M67.45,22.63c.55.25-.4.91-.36,1.42C66.74,23.58,67.53,23.24,67.45,22.63Z" transform="translate(-7.88 -4.55)" fill="#fff" fill-rule="evenodd"/>
    <path d="M63.41,24.05c.92,1.72,3.13,6.89,2.61,9.5a13.42,13.42,0,0,1-1.66,3c-4.11,6.4-8.43,13.73-12.23,19.95-2.4.84-4.65,2.32-8,1.89C50.62,47,57.3,35.8,63.41,24.05Z" transform="translate(-7.88 -4.55)" fill="#fff" fill-rule="evenodd"/>
    <path d="M69,27.85c.25.38-.36.91-.36,1.43C68.37,28.9,68.86,28.24,69,27.85Z" transform="translate(-7.88 -4.55)" fill="#fff" fill-rule="evenodd"/>
    <path d="M69.94,31.06c.52.07,0,1.14.36,1.42a8.5,8.5,0,0,0-1.43,1.31c-.27-.32,0-1.15-.12-1.66C69.4,32,69.65,31.52,69.94,31.06Z" transform="translate(-7.88 -4.55)" fill="#fff" fill-rule="evenodd"/>
    <path d="M67.8,31.3c.33.18,0,.71-.12.83C67.35,31.93,67.74,31.48,67.8,31.3Z" transform="translate(-7.88 -4.55)" fill="#fff" fill-rule="evenodd"/>
    <path d="M10.22,32.48h.71c-.1.85.24,2.14-.23,2.62h-.6C10,34.09,10.26,33.43,10.22,32.48Z" transform="translate(-7.88 -4.55)" fill="#fff" fill-rule="evenodd"/>
    <path d="M11.65,32.48c.34,0,.77-.06.95.12.08.84-.2,1.31-.12,2.14-.41-.1-.46.18-.83.12Z" transform="translate(-7.88 -4.55)" fill="#fff" fill-rule="evenodd"/>
    <path d="M68,32.72c.27.71.21,2.11-.59,2.14a11.5,11.5,0,0,0,.11-1.9C67.83,33,68,32.93,68,32.72Z" transform="translate(-7.88 -4.55)" fill="#fff" fill-rule="evenodd"/>
    <path d="M70.18,33.55c.26.05,0,.59.12.83a9,9,0,0,0-1.43,1.07C68.42,34.4,69.78,34.15,70.18,33.55Z" transform="translate(-7.88 -4.55)" fill="#fff" fill-rule="evenodd"/>
    <path d="M67.92,35.33a1,1,0,0,1-.47,1.43c-.29-.22.16-.7,0-1.19A.52.52,0,0,0,67.92,35.33Z" transform="translate(-7.88 -4.55)" fill="#fff" fill-rule="evenodd"/>
    <path d="M70.06,35.57c.26,0,0,.5.12.71a4.74,4.74,0,0,0-1.43,1.19C68.37,36.5,69.79,36.29,70.06,35.57Z" transform="translate(-7.88 -4.55)" fill="#fff" fill-rule="evenodd"/>
    <path d="M12.48,35.69c-.07,1.78.35,3.67.35,5-.41-.1-.45.17-.83.11a20.35,20.35,0,0,1-.35-5C11.8,35.64,12.16,35.69,12.48,35.69Z" transform="translate(-7.88 -4.55)" fill="#fff" fill-rule="evenodd"/>
    <path d="M10.82,35.93a33.26,33.26,0,0,0,.35,5.34,1.17,1.17,0,0,0-.71.35,22,22,0,0,1-.24-5.69Z" transform="translate(-7.88 -4.55)" fill="#fff" fill-rule="evenodd"/>
    <path d="M65.31,37c-.58,3.44-1.23,6.82-2.85,9.38A32.33,32.33,0,0,1,60,49.22c-1.67,2-2.87,4.35-5.11,5.82C57.76,48.91,62.27,43.38,65.31,37Z" transform="translate(-7.88 -4.55)" fill="#fff" fill-rule="evenodd"/>
    <path d="M69.94,37.23c.34.78-1,1.56-1.31,1.66C68.63,37.9,69.61,37.89,69.94,37.23Z" transform="translate(-7.88 -4.55)" fill="#fff" fill-rule="evenodd"/>
    <path d="M68,37.71c0,.79-.69.89-1,1.42C66.65,38.45,67.65,37.56,68,37.71Z" transform="translate(-7.88 -4.55)" fill="#fff" fill-rule="evenodd"/>
    <path d="M67.92,39.25c0,1-1,1.09-1.3,1.78C66.3,40.16,67.33,39.61,67.92,39.25Z" transform="translate(-7.88 -4.55)" fill="#fff" fill-rule="evenodd"/>
    <path d="M69.35,39.49c.4.72-.57,1.09-.84,1.54C68.1,40.29,69.05,39.9,69.35,39.49Z" transform="translate(-7.88 -4.55)" fill="#fff" fill-rule="evenodd"/>
    <path d="M41.33,40.44c.29.07.26.45.35.71-.68.73.36,2.26,0,3.8-.37.06-.42-.21-.83-.12C41,43.37,40.45,41.18,41.33,40.44Z" transform="translate(-7.88 -4.55)" fill="#fff" fill-rule="evenodd"/>
    <path d="M43,40.79H44.3c-.2.4-.68.51-.72,1.07-.38-.07-.55.08-.83.12A2.11,2.11,0,0,1,43,40.79Z" transform="translate(-7.88 -4.55)" fill="#fff" fill-rule="evenodd"/>
    <path d="M46.19,40.91a4.57,4.57,0,0,1-2,.83C44.68,41.33,45.27,40.53,46.19,40.91Z" transform="translate(-7.88 -4.55)" fill="#fff" fill-rule="evenodd"/>
    <path d="M67.56,41.15c.26.5-.32,1.18-.94,1.19C66.36,41.8,67.4,41.65,67.56,41.15Z" transform="translate(-7.88 -4.55)" fill="#fff" fill-rule="evenodd"/>
    <path d="M12.83,41.62c.62.45.54,1.36.72,2,.53,2,1.67,4,2.25,5.7-.82.31-1.08-.79-1.3-1.3a42.87,42.87,0,0,1-2.26-6.3C12.58,41.84,12.55,41.58,12.83,41.62Z" transform="translate(-7.88 -4.55)" fill="#fff" fill-rule="evenodd"/>
    <path d="M14.38,49.94c-.61.06-.8.54-1.43.59-1-2.43-1.68-5.13-2.49-7.72a1.27,1.27,0,0,1,1.07-.59C12.18,45.09,13.51,47.29,14.38,49.94Z" transform="translate(-7.88 -4.55)" fill="#fff" fill-rule="evenodd"/>
    <path d="M67.09,43.88a36.34,36.34,0,0,1-1.78,5.34A12.06,12.06,0,0,1,63.77,48c.68-1.61,1.32-3.27,1.9-5C66.42,43,66.71,43.51,67.09,43.88Z" transform="translate(-7.88 -4.55)" fill="#fff" fill-rule="evenodd"/>
    <path d="M42.16,47c.45.17.23-.33.59-.24,1.21,1.42.36,4.5-1.07,4.87a2.75,2.75,0,0,1-3.32-3.68,3.19,3.19,0,0,1,3.21-1.55C42,46.3,41.87,46.86,42.16,47ZM39,49.34c.47,2.47,4.73,1.33,3.45-1.66A2,2,0,0,0,39,49.34Z" transform="translate(-7.88 -4.55)" fill="#fff" fill-rule="evenodd"/>
    <path d="M41.33,48.27a1.84,1.84,0,0,1-.24,1.19c-.43.07-.57-.14-.83-.24C40.15,48.45,40.62,48.24,41.33,48.27Z" transform="translate(-7.88 -4.55)" fill="#fff" fill-rule="evenodd"/>
    <path d="M63.17,48.87c.59.32,1,.87,1.55,1.18-.09.48-.53.59-.72,1-.69-.17-.69-1-1.18-1.42C62.82,49.23,63.13,49.18,63.17,48.87Z" transform="translate(-7.88 -4.55)" fill="#fff" fill-rule="evenodd"/>
    <path d="M19.48,54.21c-1.47-.51-2.58-2.4-3.68-3.68,0-.28.52-.12.6-.36.19,0,.2.11.35.12a7.28,7.28,0,0,0,1.43,2C18.68,52.88,19.59,53.4,19.48,54.21Z" transform="translate(-7.88 -4.55)" fill="#fff" fill-rule="evenodd"/>
    <path d="M62.1,50.41a11,11,0,0,1,1.07,1.66c-1.44,1.45-2.43,3.35-4.27,4.4a14.06,14.06,0,0,0-1.66-1.31A53.17,53.17,0,0,0,62.1,50.41Z" transform="translate(-7.88 -4.55)" fill="#fff" fill-rule="evenodd"/>
    <path d="M18.65,54.8c-.3.69-.9,1.08-1.19,1.78a16.92,16.92,0,0,1-3.91-5.22c.53-.06.8-.38,1.3-.48C16.25,52.06,17.06,53.82,18.65,54.8Z" transform="translate(-7.88 -4.55)" fill="#fff" fill-rule="evenodd"/>
    <path d="M37.17,50.88a5.11,5.11,0,0,0,2.26,1.67c-.07,2,.34,3.45.35,5.34a21,21,0,0,1-6.41-.71C34.34,54.78,36,53,37.17,50.88Z" transform="translate(-7.88 -4.55)" fill="#fff" fill-rule="evenodd"/>
    <path d="M42.16,52.78a40.18,40.18,0,0,0-.36,4.4c-.24,0-.31.08-.47.12-.69-1.06-.38-3.11-.83-4.4A5.79,5.79,0,0,0,42.16,52.78Z" transform="translate(-7.88 -4.55)" fill="#fff" fill-rule="evenodd"/>
    <path d="M20.43,54.57c1,.77,2.31,1.25,3.09,2.25a.91.91,0,0,0-.24.36A12.88,12.88,0,0,1,20.19,55C20.11,54.72,20.43,54.8,20.43,54.57Z" transform="translate(-7.88 -4.55)" fill="#fff" fill-rule="evenodd"/>
    <path d="M22.81,58A11.34,11.34,0,0,0,22,59.55a16.5,16.5,0,0,1-3.92-2.25c.27-.72,1-1,1.3-1.67C20.63,56.31,21.61,57.26,22.81,58Z" transform="translate(-7.88 -4.55)" fill="#fff" fill-rule="evenodd"/>
    <path d="M58.07,57.18a13.18,13.18,0,0,1-6.18,4.15,8.4,8.4,0,0,1-.83-1.9,20.15,20.15,0,0,0,5.46-3.68A7.26,7.26,0,0,0,58.07,57.18Z" transform="translate(-7.88 -4.55)" fill="#fff" fill-rule="evenodd"/>
    <path d="M26,58c-.17.22-.26.52-.71.47A1.09,1.09,0,0,1,26,58Z" transform="translate(-7.88 -4.55)" fill="#fff" fill-rule="evenodd"/>
    <path d="M26.84,58.6c.23,0,.3.26.6.24.08.32-.24.24-.24.47-.37.06-.46-.17-.71-.23C26.52,58.83,26.81,58.84,26.84,58.6Z" transform="translate(-7.88 -4.55)" fill="#fff" fill-rule="evenodd"/>
    <path d="M26.25,59.79c-.2.59-.84.74-1.19,1.19-.34,0-.36-.27-.71-.24C24.79,60.22,25.3,59.45,26.25,59.79Z" transform="translate(-7.88 -4.55)" fill="#fff" fill-rule="evenodd"/>
    <path d="M30.17,60c-.08.44-.71.4-1.07.23C29.18,59.82,29.81,59.86,30.17,60Z" transform="translate(-7.88 -4.55)" fill="#fff" fill-rule="evenodd"/>
    <path d="M27.2,60.26c.34.2-.79,1.35-1.31,1.07C26.25,60.9,26.81,60.67,27.2,60.26Z" transform="translate(-7.88 -4.55)" fill="#fff" fill-rule="evenodd"/>
    <path d="M49.64,60.26c.23.09.31.32.35.6-.78.68-1.13,1.79-2.37,2C48.17,61.88,49.19,61.36,49.64,60.26Z" transform="translate(-7.88 -4.55)" fill="#fff" fill-rule="evenodd"/>
    <path d="M31.36,60.38c-.78.73-1.31,1.71-2.38,2.14A4.24,4.24,0,0,1,31.36,60.38Z" transform="translate(-7.88 -4.55)" fill="#fff" fill-rule="evenodd"/>
    <path d="M48.45,60.38c.22.34-.57.86-1,1.31s-.84,1.13-1.19,1.54c-.17.07-.61-.14-.59.12A7,7,0,0,1,48.45,60.38Z" transform="translate(-7.88 -4.55)" fill="#fff" fill-rule="evenodd"/>
    <path d="M29.45,60.74c-.43.51-1.05.84-1.42,1.42a1.84,1.84,0,0,0-.83-.23C27.71,61.26,28.29,60.4,29.45,60.74Z" transform="translate(-7.88 -4.55)" fill="#fff" fill-rule="evenodd"/>
    <path d="M30.05,62.76c.62-.73,1.33-1.36,1.9-2.14C32.71,61.33,31.2,63.17,30.05,62.76Z" transform="translate(-7.88 -4.55)" fill="#fff" fill-rule="evenodd"/>
    <path d="M33,60.86a7.72,7.72,0,0,1,1.66.24c0,.83-.22,1.52-.24,2.37a8.06,8.06,0,0,1-1.78-.24C32.81,62.48,32.89,61.64,33,60.86Z" transform="translate(-7.88 -4.55)" fill="#fff" fill-rule="evenodd"/>
    <path d="M46.43,61c.3.31-.49.74-.83,1.18s-.52,1.22-1.07,1.31A3.33,3.33,0,0,1,46.43,61Z" transform="translate(-7.88 -4.55)" fill="#fff" fill-rule="evenodd"/>
    <path d="M35.39,61.1c.49-.1.61.18,1.07.11a13.83,13.83,0,0,1-.12,2.38c-.37,0-.87.08-1.07-.12A16.34,16.34,0,0,0,35.39,61.1Z" transform="translate(-7.88 -4.55)" fill="#fff" fill-rule="evenodd"/>
    <path d="M42.28,61.45a10.22,10.22,0,0,0,.12,2.26c-1.78,0-3.55.3-5.23,0v-2.5C38.91,61.26,40.5,61.45,42.28,61.45Z" transform="translate(-7.88 -4.55)" fill="#fff" fill-rule="evenodd"/>
    <path d="M44.77,61.21c-.15.25-.19.61-.59.6C44.08,61.32,44.36,61.2,44.77,61.21Z" transform="translate(-7.88 -4.55)" fill="#fff" fill-rule="evenodd"/>
    <path d="M50.11,61.45c.33-.05.11.44.36.48-.07.28-.45.26-.71.35C49.85,62,50.08,61.82,50.11,61.45Z" transform="translate(-7.88 -4.55)" fill="#fff" fill-rule="evenodd"/>
    <path d="M68.87,41.62A42.76,42.76,0,0,1,67.45,46c-.11.23-.4.23-.12,0,0-.75.35-1.15.35-1.9.23-.14.26-.46.48-.6C68,42.84,68.2,41.8,68.87,41.62Z" transform="translate(-7.88 -4.55)" fill="#fff" fill-rule="evenodd"/>
    <path d="M24.59,59.08c.16.36-.8.62-.83,1.18a1.33,1.33,0,0,1-1-.23A2.18,2.18,0,0,0,24.59,59.08Z" transform="translate(-7.88 -4.55)" fill="#fff" fill-rule="evenodd"/>
  </g>
</svg>
