<svg id="Layer_1" data-name="Layer 1" xmlns="http://www.w3.org/2000/svg" viewBox="0 0 72.53 79.9">
  <g>
    <path d="M7.14,13.93A60,60,0,0,0,3.9,25.81,29.33,29.33,0,0,1,3.28,30C3,31,2.05,31.67,1.74,32.76a10.76,10.76,0,0,0-.46,3.85c.1.79.64,1.23.77,2,.44,2.66-.24,5.81,0,8.79a45.22,45.22,0,0,0,1.08,8c-1.19,2.14,0,5.76,1.7,6.94a81.43,81.43,0,0,0,3.24,7.56,71.56,71.56,0,0,1,3.7,7.25c2.54,4.15,8.21,4.43,14.66,4.94a152.67,152.67,0,0,0,23.3-.31c6.5-.5,12.05-.43,14.19-4.94.36-.77.28-1.69.62-2.46a36,36,0,0,1,2.31-3.71,39.24,39.24,0,0,0,5.09-13,7,7,0,0,0,1.7-6c-.18-.91-.65-1-.77-1.85-.22-1.57.24-3.75.15-5.71s-.59-4-.46-5.55c.06-.67.42-1.33.46-2a14.93,14.93,0,0,0-.77-5.09c-.36-1-1.21-1.93-1.54-2.93-1.9-5.73-3.15-11.17-5.56-16.2,1-1.8-.67-4.05-1.08-5.86C49.28,1.46,24,.94,9.46,6.68,8.35,8.61,6,11.19,7.14,13.93Z" transform="translate(-1.24 -2.55)" fill="#210404" fill-rule="evenodd"/>
    <path d="M34.14,7a13.65,13.65,0,0,1-3.08,1.54C32,8,32.38,6.77,34.14,7Z" transform="translate(-1.24 -2.55)" fill="#fff" fill-rule="evenodd"/>
    <path d="M55.59,8.23c-6.3.3-12.63-.12-19.13.15-.78-.22.81-.44.61-1.08-.43-.41-.76.14-1.23.15,0-.13.06-.14.15-.15C42.17,6.74,49.51,7.66,55.59,8.23Z" transform="translate(-1.24 -2.55)" fill="#fff" fill-rule="evenodd"/>
    <path d="M30.9,7.15c-.81.42-1.33,1.13-2.31,1.38-.69,0,.21-.45.15-.77s-.27-.24-.31-.46c-1.61.19-1.86,1.74-3.86,1.54C25.43,7,28.16,7.08,30.9,7.15Z" transform="translate(-1.24 -2.55)" fill="#fff" fill-rule="evenodd"/>
    <path d="M24,7.45c.34.28-.83,1.61-1.85,1.55A6.2,6.2,0,0,1,24,7.45Z" transform="translate(-1.24 -2.55)" fill="#fff" fill-rule="evenodd"/>
    <path d="M21.49,7.76c.38.27-.83,1.51-1.7,1.54C20.32,8.76,20.69,8,21.49,7.76Z" transform="translate(-1.24 -2.55)" fill="#fff" fill-rule="evenodd"/>
    <path d="M19.18,8.07c.34.33-1,1.58-1.86,1.7A6.31,6.31,0,0,1,19.18,8.07Z" transform="translate(-1.24 -2.55)" fill="#fff" fill-rule="evenodd"/>
    <path d="M17.32,8.38c.36.34-1.12,1.42-1.85,1.7A17.5,17.5,0,0,1,17.32,8.38Z" transform="translate(-1.24 -2.55)" fill="#fff" fill-rule="evenodd"/>
    <path d="M12.85,9.15c.68.2-.7.78-.77,1.23-.44-1.05-1.54.14-2,.47-.39-.21.23-.69.16-1.08A20.09,20.09,0,0,0,12.85,9.15Z" transform="translate(-1.24 -2.55)" fill="#fff" fill-rule="evenodd"/>
    <path d="M47.87,10.54h2.78c-.06.3-.6.12-.46.62A6.31,6.31,0,0,1,54,10.54c-1.56,1-3.87,1.27-5.09,2.62A10.67,10.67,0,0,1,47.87,10.54Z" transform="translate(-1.24 -2.55)" fill="#fff" fill-rule="evenodd"/>
    <path d="M58.83,10.85c-2.95,1.57-6.78,2.27-9.1,4.47,3.36-.44,6.43-2.51,9.71-3.55-2.85,1.93-6.5,3.06-9.56,4.79-.22-1.12-.65-2-.93-3.09C52.7,13,54.45,9.75,58.83,10.85Z" transform="translate(-1.24 -2.55)" fill="#fff" fill-rule="evenodd"/>
    <path d="M47,10.69c.64,2,2.17,4.7,1.85,6.64,1.16,1.93,1.27,4.9,1.85,7.4-4.3.08-8.6.15-12.65.47-.52-4.32-.53-9.15-.93-13.58C40.52,11.47,43.57,10.92,47,10.69Z" transform="translate(-1.24 -2.55)" fill="#fff" fill-rule="evenodd"/>
    <path d="M63,11.77c.21.31.15.88.31,1.24-.44.33-1.16.38-1.54.77C60.52,12.94,61.07,11.06,63,11.77Z" transform="translate(-1.24 -2.55)" fill="#fff" fill-rule="evenodd"/>
    <path d="M36,11.77c.39,4.25.65,9.43.77,13.43-4.11.05-7.73.6-11.72.77A63.4,63.4,0,0,1,27.2,12.54,59.78,59.78,0,0,1,36,11.77Z" transform="translate(-1.24 -2.55)" fill="#fff" fill-rule="evenodd"/>
    <path d="M26,12.7A73.21,73.21,0,0,0,24,26c-3.9,1.08-9,.93-12.81,2.16.9-5,1.72-10.11,3.24-14.51A77.19,77.19,0,0,1,26,12.7Z" transform="translate(-1.24 -2.55)" fill="#fff" fill-rule="evenodd"/>
    <path d="M60.52,14.09c-3.05,1.94-6.9,3.07-9.87,5.09a3.38,3.38,0,0,1-.46-1.85c3.47-1.26,6.58-2.88,9.87-4.32C60.18,13.4,60.22,13.88,60.52,14.09Z" transform="translate(-1.24 -2.55)" fill="#fff" fill-rule="evenodd"/>
    <path d="M63.92,15.63a4.08,4.08,0,0,1-1.23.46c-.08-.64-.54-.9-.62-1.54C63.18,13.51,63.87,13.9,63.92,15.63Z" transform="translate(-1.24 -2.55)" fill="#fff" fill-rule="evenodd"/>
    <path d="M61.76,16.4c-2.56,1.86-6.11,2.74-8.79,4.48,1.14.75,3.09-.75,4.47-1.39a30.53,30.53,0,0,0,4.47-2.16c.39.12.4.63.62.92-3.29,2.11-7.45,3.35-10.8,5.4-.71-.94-.67-2.62-1.08-3.85a73.3,73.3,0,0,0,10.18-4.63C61.38,15.34,61.35,16.09,61.76,16.4Z" transform="translate(-1.24 -2.55)" fill="#fff" fill-rule="evenodd"/>
    <path d="M64.38,18.1c-.13-.45-.39.2-.77,0,.06-.68-.44-.79-.46-1.39.44-.07.48-.55,1.08-.46.25,2.68,2,4.64,1.85,7.25-.39-.09-.77-1-.46-1.23a13.17,13.17,0,0,1-1.7-4A.7.7,0,0,1,64.38,18.1Z" transform="translate(-1.24 -2.55)" fill="#fff" fill-rule="evenodd"/>
    <path d="M63.46,20.88c-4.13.89-6.81,4.61-11.73,3.7.41-1,1.72-1,2.62-1.39a58.64,58.64,0,0,0,8.34-4C63.29,19.4,63.38,20.13,63.46,20.88Z" transform="translate(-1.24 -2.55)" fill="#fff" fill-rule="evenodd"/>
    <path d="M63.76,21.49c.31.21.35.69.47,1.08-2.88.62-4.31,3-7.72,2.63C58.59,23.62,61.65,23,63.76,21.49Z" transform="translate(-1.24 -2.55)" fill="#fff" fill-rule="evenodd"/>
    <path d="M64.84,24c-.61.88-1.94,1-2.31,2.16a25.73,25.73,0,0,0-2.62-.61c1.32-.9,3.14-1.29,4.32-2.32C64.8,23.08,64.49,23.85,64.84,24Z" transform="translate(-1.24 -2.55)" fill="#fff" fill-rule="evenodd"/>
    <path d="M66.39,24.27c.63.65.66,1.9.93,2.93C67,26.29,66.18,25.18,66.39,24.27Z" transform="translate(-1.24 -2.55)" fill="#fff" fill-rule="evenodd"/>
    <path d="M65.31,25.2a5,5,0,0,0,.61,1.54c-.69.28-1.77-.38-2.62-.46C64,25.93,64.44,25.36,65.31,25.2Z" transform="translate(-1.24 -2.55)" fill="#fff" fill-rule="evenodd"/>
    <path d="M70.4,31.68a27.7,27.7,0,0,1,.77,3.55,110.71,110.71,0,0,0-36.26-3.71c3.64,1.15,9.07.5,13.27,1.08-6.49.2-13.09.29-19.13.93-.58-.19.62-1.08,1.23-1.08a1,1,0,0,0-.15.77c1.19.06,1-1.24,2.47-.93.09-.53-.48-.56,0-1.39-.91-.31-1.14.73-1.85.93-1.68.48-3.71,0-5.4.16-7.58.6-15.86,1.58-21.76,3.7A31,31,0,0,1,4.21,32c10.85-3.37,27.37-5.24,41.66-4.17C54.82,28.49,64.12,29.06,70.4,31.68Zm-12.34-.93c.27.14.39.43.92.31a1.31,1.31,0,0,0,.16-.93C58.67,29.69,57.9,29.8,58.06,30.75Zm2.46.62c1,.91,1.22-1.42.16-.62C60.45,30.78,60.54,31.12,60.52,31.37Z" transform="translate(-1.24 -2.55)" fill="#fff" fill-rule="evenodd"/>
    <path d="M28.43,32.6c-.39.38-.53,1-1.23,1.08C27.43,33.15,27.56,32.5,28.43,32.6Z" transform="translate(-1.24 -2.55)" fill="#fff" fill-rule="evenodd"/>
    <path d="M26.43,32.76a1.66,1.66,0,0,1-1.7.92A1.75,1.75,0,0,1,26.43,32.76Z" transform="translate(-1.24 -2.55)" fill="#fff" fill-rule="evenodd"/>
    <path d="M23.65,32.91a1.22,1.22,0,0,1-1.54.93A1.81,1.81,0,0,1,23.65,32.91Z" transform="translate(-1.24 -2.55)" fill="#fff" fill-rule="evenodd"/>
    <path d="M21.34,33.07c.38.59-.89.86-1.39,1.08-.44-.25.33-.58.31-.93C20.57,33.13,21.27,33.41,21.34,33.07Z" transform="translate(-1.24 -2.55)" fill="#fff" fill-rule="evenodd"/>
    <path d="M70.24,36.15c-3.35-.48-7.87-1.59-12.65-2.31-.53-.09-1.86-.29-2.77-.47.1,0-1-.28-.93-.15-.08-.39,5.61.19,1.08-.15C60.09,33.46,65.76,35.17,70.24,36.15Z" transform="translate(-1.24 -2.55)" fill="#fff" fill-rule="evenodd"/>
    <path d="M18.87,33.37c-.37.46-.68,1-1.39,1.08C17.91,34.07,18,33.34,18.87,33.37Z" transform="translate(-1.24 -2.55)" fill="#fff" fill-rule="evenodd"/>
    <path d="M16.24,33.84c-.46.35-.64,1-1.39,1.08C15.12,34.36,15.43,33.84,16.24,33.84Z" transform="translate(-1.24 -2.55)" fill="#fff" fill-rule="evenodd"/>
    <path d="M37.69,35.84c0,6.18.52,11.82.62,17.9-4.71.39-8.87,1.32-13.89,1.39-.82-5.61-.41-12.74-.31-18.82C28.47,36.08,33.35,35.57,37.69,35.84Z" transform="translate(-1.24 -2.55)" fill="#fff" fill-rule="evenodd"/>
    <path d="M52.19,35.84A64.53,64.53,0,0,1,53.89,52c-5.07.28-9.41,1.29-14.5,1.55-.32-6-.55-12-.93-17.9C43.09,35.68,47.77,35.64,52.19,35.84Z" transform="translate(-1.24 -2.55)" fill="#fff" fill-rule="evenodd"/>
    <path d="M55,38.31c-.14-.42-.48.22-.93,0-.16-.81-.44-1.5-.61-2.31a101.32,101.32,0,0,1,11.72,1.08c-2.89,1.52-6.58,2.26-8.79,4.47a29.64,29.64,0,0,0,5.4-2.16c1.78-.78,3.61-2,5.4-1.7a36.38,36.38,0,0,1-5.71,2.78,23.85,23.85,0,0,0-5.4,2.93c4-.69,7.37-3.32,11.42-4.47-.13.43.22.4.15.77a42.69,42.69,0,0,1-6.32,3.24,64.26,64.26,0,0,0-6.18,3.24,22.73,22.73,0,0,0-.61-5.25c2.34-1.36,5.22-2.18,7.09-4-2.9.59-4.8,2.2-7.25,3.24C54.31,39.31,53.88,38.31,55,38.31Z" transform="translate(-1.24 -2.55)" fill="#fff" fill-rule="evenodd"/>
    <path d="M23.34,36.31a118.84,118.84,0,0,0-.15,19c-3.72,0-7.15.27-11,.16a57,57,0,0,1-2-18C14.34,36.77,18.93,36.63,23.34,36.31Z" transform="translate(-1.24 -2.55)" fill="#fff" fill-rule="evenodd"/>
    <path d="M8.84,37.54c.83.32.46,2.14.46,3.24a47.82,47.82,0,0,0,2,14.5,57.67,57.67,0,0,1-5.87.31,59.49,59.49,0,0,1-1.08-17A41.93,41.93,0,0,1,8.84,37.54Z" transform="translate(-1.24 -2.55)" fill="#fff" fill-rule="evenodd"/>
    <path d="M69,38.16c.72,0,1.58-.14,1.54.61-.07.6-.87.46-1.39.62A2.89,2.89,0,0,1,69,38.16Z" transform="translate(-1.24 -2.55)" fill="#fff" fill-rule="evenodd"/>
    <path d="M70.55,41.71c-.2-.4-.68.22-1.08.15A5.32,5.32,0,0,1,69.32,40c.65,0,.65-.59,1.23-.62.17,1.43.15,3,.31,4.48-.5,0-.59.43-1.23.3C69.45,42.86,69.44,42,70.55,41.71Z" transform="translate(-1.24 -2.55)" fill="#fff" fill-rule="evenodd"/>
    <path d="M67.78,41.09v1.54a100.31,100.31,0,0,0-12.66,6.48V46.8C59.47,45,63.42,42.86,67.78,41.09Z" transform="translate(-1.24 -2.55)" fill="#fff" fill-rule="evenodd"/>
    <path d="M67.93,44.94c-3.75,2.07-8.25,3.38-11.26,6.18,4-1.33,7.71-3.81,11.26-5.09-.15,1.76-2.36,2.21-3.7,2.93-2.59,1.38-5,3-9.11,3.08a5.81,5.81,0,0,1,0-2.16c4.38-1.89,8.4-4.15,12.5-6.32C68.25,43.5,67.79,44.52,67.93,44.94Z" transform="translate(-1.24 -2.55)" fill="#fff" fill-rule="evenodd"/>
    <path d="M70.71,44.17c.35.17.06,1,.15,1.39-.38.13-.6.43-1.08.47.08-.49-.28-.55-.15-1.09A2.58,2.58,0,0,0,70.71,44.17Z" transform="translate(-1.24 -2.55)" fill="#fff" fill-rule="evenodd"/>
    <path d="M70.71,46.18c.36.93.05,2.52.15,3.7-.47-.11-.45.27-.92.16-.34-.75-.08-2.09-.16-3.09C70.13,46.74,70.38,46.42,70.71,46.18Z" transform="translate(-1.24 -2.55)" fill="#fff" fill-rule="evenodd"/>
    <path d="M67.78,48c.3.62.29,1.56.61,2.16-1.81.09-3.54.27-5.24.46C64.61,49.7,66.39,49.06,67.78,48Z" transform="translate(-1.24 -2.55)" fill="#fff" fill-rule="evenodd"/>
    <path d="M71.17,52.35c.9-.13.28,1.27.46,1.85-5.58,1.72-12.81,1.8-19,2.93-.92.16-.24-.31-.77-.46-.77,0-1.37.77-2.16.93-.41.08-1-.22-1.7-.16-1.13.1-1.89,1.12-2.78.16-2.31,1.28-7,1.22-11.26,1.39-6.5.25-13.55.42-20.22.15-3.28-.13-6.45-.07-8.94-.93.66-1.32,2.6-.64,3.55-.61a255.45,255.45,0,0,0,45.05-2.78C58.68,54,63.8,53.06,68.7,52.51A9.34,9.34,0,0,0,71.17,52.35Z" transform="translate(-1.24 -2.55)" fill="#fff" fill-rule="evenodd"/>
    <path d="M59.14,57.13c.4,0,.39.33.46.62a11.33,11.33,0,0,0-1.39.31C58.41,57.64,58.83,57.44,59.14,57.13Z" transform="translate(-1.24 -2.55)" fill="#fff" fill-rule="evenodd"/>
    <path d="M57.44,57.44c-.73.46-1.24,1.13-2.32,1.24A3,3,0,0,1,57.44,57.44Z" transform="translate(-1.24 -2.55)" fill="#fff" fill-rule="evenodd"/>
    <path d="M54.82,57.75a4.22,4.22,0,0,1-3.24,1.54A4.71,4.71,0,0,1,54.82,57.75Z" transform="translate(-1.24 -2.55)" fill="#fff" fill-rule="evenodd"/>
    <path d="M51.42,58.21a3.79,3.79,0,0,1-3.08,1.55A4.14,4.14,0,0,1,51.42,58.21Z" transform="translate(-1.24 -2.55)" fill="#fff" fill-rule="evenodd"/>
    <path d="M48.34,58.68c-.86.58-1.32,1.56-2.78,1.54C46.35,59.57,46.82,58.61,48.34,58.68Z" transform="translate(-1.24 -2.55)" fill="#fff" fill-rule="evenodd"/>
    <path d="M67.16,58.68c-3.47,1.57-7.8,2.27-10.65,4.47-.35-.57,0-1.8-.15-2.62C60,60,63.51,59.24,67.16,58.68Z" transform="translate(-1.24 -2.55)" fill="#fff" fill-rule="evenodd"/>
    <path d="M45.25,59c.47.48-.78.55-.46,1.38-.73-.11-1.06.18-1.7.16A3.09,3.09,0,0,1,45.25,59Z" transform="translate(-1.24 -2.55)" fill="#fff" fill-rule="evenodd"/>
    <path d="M69.32,59.14c-.19.69-.21,1.54-.93,1.7C68.22,60.4,68.5,59.1,69.32,59.14Z" transform="translate(-1.24 -2.55)" fill="#fff" fill-rule="evenodd"/>
    <path d="M42.94,59.29c-.42,1.63-2.15,1.44-3.55,1.55-10.49.78-23.49.63-33-.77C18.41,60.09,31.15,60.45,42.94,59.29Z" transform="translate(-1.24 -2.55)" fill="#fff" fill-rule="evenodd"/>
    <path d="M66.39,60.07c.38.49-.32,1.21-.47,1.69-3.56,1.06-6.57,2.69-9.87,4a5.7,5.7,0,0,0,.15-2C59.43,62.36,63.05,61.36,66.39,60.07Z" transform="translate(-1.24 -2.55)" fill="#fff" fill-rule="evenodd"/>
    <path d="M54,61.15c-.41,4.15-.91,8.23-1.54,12.19-3.87.85-8,1.47-12.19,2-.17-4.1-.44-8.09-.61-12.19C44.7,62.71,49,61.55,54,61.15Z" transform="translate(-1.24 -2.55)" fill="#fff" fill-rule="evenodd"/>
    <path d="M68.24,61.76a1.66,1.66,0,0,1-1.24,2A2.18,2.18,0,0,1,68.24,61.76Z" transform="translate(-1.24 -2.55)" fill="#fff" fill-rule="evenodd"/>
    <path d="M55.74,68.24a3.43,3.43,0,0,0,.16-1.39c2.85-1.46,6.15-2.48,9.1-3.85.75.31-.32,1.27-.46,1.69A87.78,87.78,0,0,0,55.74,68.24Z" transform="translate(-1.24 -2.55)" fill="#fff" fill-rule="evenodd"/>
    <path d="M38.77,63.15c.06,4.21.51,8,.46,12.34-3.74.38-7.91.32-11.72.62a58.42,58.42,0,0,1-2.32-12.34C30,63.85,33.8,62.91,38.77,63.15Z" transform="translate(-1.24 -2.55)" fill="#fff" fill-rule="evenodd"/>
    <path d="M7.76,63.31a25.91,25.91,0,0,0,5.55.46C14.6,68,16.74,71.35,18.1,75.49c-1.47-.28-3.47,0-4.79-.46A96.46,96.46,0,0,1,7.76,63.31Z" transform="translate(-1.24 -2.55)" fill="#fff" fill-rule="evenodd"/>
    <path d="M14.55,63.77h9.56C24.72,68,25.49,72,26.27,76c-2.4,0-4.36-.37-6.63-.47C18,71.55,15.71,68.22,14.55,63.77Z" transform="translate(-1.24 -2.55)" fill="#fff" fill-rule="evenodd"/>
    <path d="M67.16,64.54a1.88,1.88,0,0,1-1.7,2A3,3,0,0,1,67.16,64.54Z" transform="translate(-1.24 -2.55)" fill="#fff" fill-rule="evenodd"/>
    <path d="M64.07,65.93a4.08,4.08,0,0,0-.46,1.23c-2.73,1.18-5.78,2-8.18,3.55-.44-.51.3-1.13.16-1.85C58.67,68.14,61.11,66.77,64.07,65.93Z" transform="translate(-1.24 -2.55)" fill="#fff" fill-rule="evenodd"/>
    <path d="M65.77,67.32c.45.29-.45,1.78-1.39,1.69A2.16,2.16,0,0,1,65.77,67.32Z" transform="translate(-1.24 -2.55)" fill="#fff" fill-rule="evenodd"/>
    <path d="M62.84,68.55c-.69,2.24-3.92,2-5.4,3.4,1.38,0,2.84-1.16,4.47-1.39l-.77,1.54c-2.28.34-4.33.92-6.79,1.08.27-.61.47-1.28.77-1.85C57.69,70.4,60.18,69.38,62.84,68.55Z" transform="translate(-1.24 -2.55)" fill="#fff" fill-rule="evenodd"/>
    <path d="M64.69,69.63c-.51.83-.59,2.09-1.85,2.16C63.42,71,63.45,69.72,64.69,69.63Z" transform="translate(-1.24 -2.55)" fill="#fff" fill-rule="evenodd"/>
    <path d="M52.35,76.73c-.63.6-.83,1.64-2.32,1.39C50.48,77.31,51.14,76.31,52.35,76.73Z" transform="translate(-1.24 -2.55)" fill="#fff" fill-rule="evenodd"/>
    <path d="M58.67,76.58c-.19.31-.24.78-.77.77C58.1,77,58.15,76.56,58.67,76.58Z" transform="translate(-1.24 -2.55)" fill="#fff" fill-rule="evenodd"/>
    <path d="M49.73,76.73a2.44,2.44,0,0,1-2.32,1.54A1.88,1.88,0,0,1,49.73,76.73Z" transform="translate(-1.24 -2.55)" fill="#fff" fill-rule="evenodd"/>
    <path d="M54.82,76.73c-.56.57-.79,1.47-2.16,1.23C53.22,77.4,53.47,76.52,54.82,76.73Z" transform="translate(-1.24 -2.55)" fill="#fff" fill-rule="evenodd"/>
    <path d="M56.82,76.73a1.24,1.24,0,0,1-1.54.93C55.6,77.16,55.79,76.52,56.82,76.73Z" transform="translate(-1.24 -2.55)" fill="#fff" fill-rule="evenodd"/>
    <path d="M47,76.88a1.86,1.86,0,0,1-2.32,1.39C45.25,77.66,45.56,76.73,47,76.88Z" transform="translate(-1.24 -2.55)" fill="#fff" fill-rule="evenodd"/>
    <path d="M44.32,77c-.54.48-.6,1.45-1.69,1.39C43.13,77.9,43.3,77,44.32,77Z" transform="translate(-1.24 -2.55)" fill="#fff" fill-rule="evenodd"/>
    <path d="M42.78,77.19c.21,1.79-3.43,1.3-5.4,1.39a98.6,98.6,0,0,1-14.19-.31C29.77,78,36.65,78,42.78,77.19Z" transform="translate(-1.24 -2.55)" fill="#fff" fill-rule="evenodd"/>
    <path d="M59.29,78.12c-.36.46-.22,1.43-1.23,1.23C58.47,79,58.52,78.17,59.29,78.12Z" transform="translate(-1.24 -2.55)" fill="#fff" fill-rule="evenodd"/>
    <path d="M55.43,78.58c-.27.76-.62,1.43-1.85,1.24C53.93,79.13,54.28,78.45,55.43,78.58Z" transform="translate(-1.24 -2.55)" fill="#fff" fill-rule="evenodd"/>
    <path d="M53,78.74a2.06,2.06,0,0,1-2.32,1.38A2.7,2.7,0,0,1,53,78.74Z" transform="translate(-1.24 -2.55)" fill="#fff" fill-rule="evenodd"/>
    <path d="M17.79,79a167.4,167.4,0,0,0,24.53.31c-.82,2-3.87,1.24-5.86,1.24C30.61,80.59,23.5,80.49,17.79,79Z" transform="translate(-1.24 -2.55)" fill="#fff" fill-rule="evenodd"/>
    <path d="M50.34,78.89a2,2,0,0,1-2.16,1.39C48.7,79.61,48.94,78.67,50.34,78.89Z" transform="translate(-1.24 -2.55)" fill="#fff" fill-rule="evenodd"/>
    <path d="M47.87,79c-.45.63-.86,1.3-1.85,1.39C45.54,80,46.57,78.69,47.87,79Z" transform="translate(-1.24 -2.55)" fill="#fff" fill-rule="evenodd"/>
    <path d="M45.25,79.2c-.1.56-.58.75-.77,1.23h-1.7C43.32,79.74,43.71,78.89,45.25,79.2Z" transform="translate(-1.24 -2.55)" fill="#fff" fill-rule="evenodd"/>
    <path d="M62.38,8.53C47.56,5.2,26.93,4.92,11.92,8.23,13.84,6.58,20.07,5,25,5c3.21,0,6.79.46,10.49.46s7.39-.25,10.8,0c4.42.32,8.31.87,13,1.39C60.4,7,62.27,6.93,62.38,8.53Z" transform="translate(-1.24 -2.55)" fill="#fff" fill-rule="evenodd"/>
    <path d="M15,8.84c.48.37-1,1.3-1.54,1.7C13.52,10.12,14.41,9.23,15,8.84Z" transform="translate(-1.24 -2.55)" fill="#fff" fill-rule="evenodd"/>
    <path d="M7.91,35.84c1.52-.84,3.8-.94,5.56-1.54.57.1-.73.75-.93,1.08A34.9,34.9,0,0,0,7.91,35.84Z" transform="translate(-1.24 -2.55)" fill="#fff" fill-rule="evenodd"/>
    <path d="M64.23,56.52c-.11.36-1.76.5-2.47.77C62,56.49,63.45,56.82,64.23,56.52Z" transform="translate(-1.24 -2.55)" fill="#fff" fill-rule="evenodd"/>
    <path d="M57.28,78.27c.16.27-.42,1.11-.92,1.24A2.17,2.17,0,0,1,57.28,78.27Z" transform="translate(-1.24 -2.55)" fill="#fff" fill-rule="evenodd"/>
    <path d="M13.16,13.78c.28,1-.33,2.19-.62,3.39-.83,3.47-1.56,7.52-2.31,11.11a29.42,29.42,0,0,1-3.86,1.08c.15-5.66,1-10.58,2.93-14.5a3.51,3.51,0,0,0,1.24-.46c-.74,3.73-3.11,7.18-2.78,12.49,1.28-4.32,2.2-9,4-12.8C12.3,14.05,12.51,13.7,13.16,13.78Z" transform="translate(-1.24 -2.55)" fill="#fff" fill-rule="evenodd"/>
  </g>
</svg>
