<?xml version="1.0" encoding="utf-8"?>
<!-- Generator: Adobe Illustrator 25.4.1, SVG Export Plug-In . SVG Version: 6.00 Build 0)  -->
<svg version="1.1" id="Layer_1" xmlns="http://www.w3.org/2000/svg" xmlns:xlink="http://www.w3.org/1999/xlink" x="0px" y="0px"
	 viewBox="0 0 48.1 54.6" style="enable-background:new 0 0 48.1 54.6;" xml:space="preserve">
<style type="text/css">
	.st0{fill-rule:evenodd;clip-rule:evenodd;fill:#210404;}
	.st1{fill-rule:evenodd;clip-rule:evenodd;fill:#EBEBEB;}
	.st2{fill-rule:evenodd;clip-rule:evenodd;fill:#FFFFFF;}
</style>
<g>
	<path class="st0" d="M26,54.1c5.6,2.3,21.7-5.6,22-12.1c0.2-3.9-2.9-9.8-5.7-14.6C35.8,16.1,29.1,6.1,21.7,0
		c-3.8,0.2-7.5,1.1-11.1,2.6C9.4,3.2,8.2,3.8,7,4.5C4.5,6,1.1,8.7,0.3,11s0.5,5.2,2,8.6c0.9,2,1.7,4,2.6,5.8
		c3.7,7.6,8.2,14.7,13.4,21.4C20.5,49.7,23.9,53.2,26,54.1z"/>
	<path class="st1" d="M11.5,6.1c-0.4,1.2-1,2.4-1.4,3.6c-2.5,1.4-5,2.7-7.6,3.7c-0.6-1.8,1.7-2.9,3.3-4C7.4,8.2,9.7,7.1,11.5,6.1z
		 M4.2,11.9c0.6,0.3,2.1-1,2.5-1.5C6.1,9.6,3.8,11,4.2,11.9z"/>
	<path class="st1" d="M13.7,5.1c-0.2,1-1.1,1.8-1,3c-0.5,0.2-0.9,0.5-1.3,0.9C12.1,7.6,12.2,6.2,13.7,5.1z"/>
	<path class="st1" d="M19.5,3.4c-1.7,1.7-3.6,3.1-5.8,4.2c0.1-1.1,0.9-1.9,1.2-2.9C16.4,4.2,17.9,3.7,19.5,3.4z"/>
	<path class="st1" d="M22.5,3.6c0.8-0.1,1.1,1.2,1.6,1.7c-3.5,2.6-7.1,5-11.1,7.5c0.8,2,0.8,4.2,0.2,6.2c4.4,5.8,8,14.6,12.6,21.3
		c1.1,1.5,3.2,3.3,3.5,4.3s-0.7,2.5-0.9,3.3c-0.3,1-0.1,2.6-1.2,2.6c-0.6-0.7,0.2-2,0.5-3c0.4-1.1,0.5-2.3,0.2-3.5
		c-1.8,2-1.3,4.8-2.6,7c-1.6-1.3-2.9-2.8-4.1-4.4c-4.5-5.7-8.7-12.8-13-20.2C6,22.5,3.5,19,2.9,15.3C10,13.5,17.5,8,22.5,3.6z
		 M9.7,14.9c0.2,0.2,0.4,0.2,0.6,0.4C12.1,14.4,9.1,13.1,9.7,14.9z M6.9,18.9c1,0,1.6-2,0.4-2.3c-0.7,0.3-1,1.1-0.7,1.8
		C6.7,18.6,6.8,18.8,6.9,18.9z M13.7,25c0.5-0.3,0.3-0.9,0.1-1.5c-0.3,0-0.5,0.1-0.8,0.2C13,24.3,13.3,24.8,13.7,25z M14,29.8
		c0.2-0.5,0.7-0.9,0.2-1.5C12.9,27.7,12.7,29.9,14,29.8z M15.9,30.2c0.4,0.1,0.9,0,1.2-0.3C17.9,27.2,14,27.4,15.9,30.2L15.9,30.2z
		 M16.6,33.1c0.5,0,1-0.2,1.2-0.7C17.3,30.8,15.3,32.2,16.6,33.1L16.6,33.1z M18,34.3c0.2,0.3,0.3,0.7,0.6,0.8
		c0.2-0.2,0.4,0,0.6-0.2c0.1-0.4,0-0.8-0.2-1.1C18.5,33.8,18.1,34,18,34.3L18,34.3z M19.7,37.8c0.5,0.3,1.1,0.3,1.5-0.1
		c0.1-0.7-0.7-2.2-1.4-2C19.1,36.2,19.3,37,19.7,37.8L19.7,37.8z M23.1,44.3c1.1-0.7,1.3-1.7,0.5-2.9C21.7,40.7,21.7,44.1,23.1,44.3
		L23.1,44.3z M26.6,45.5c-0.5-0.8-1.1-0.9-2-0.4C24.5,46.7,26.6,47,26.6,45.5L26.6,45.5z"/>
	<path class="st1" d="M25,6.8c1.4,1.2,2.4,3.5,3.7,5c-2.7,0-5.3,2.9-7.7,3.6c-0.7,1.2,0.4,2.9,1.4,4.5c0.9,1.4,2.4,3,3.6,4.5
		c2.1,2.7,3.8,4.4,7,2.6c1.8,3.5,4,6.8,6.5,9.8c0.7,1.4-1.8,3.3-0.8,4.4s2.2-1.4,2.8-2c1.1-1.2,2.2-1.8,1.6-3.3
		c-0.8-0.4-1.3,0.2-2.3,0.7c-1.1-1.8-2.5-3.9-3.7-6c-0.9-1.2-1.6-2.5-2.2-3.9c-0.2-0.8,0.4-1.8,0.4-2.5c-0.1-2.3-2.5-4.8-3.6-7.7
		c-0.4-1,0.5,0.6,0.6,0.7c4.7,6.8,8.9,13.9,12.6,21.2c-1.6,0.7-2.3,2.9-3.8,4.1c-1.3,1.1-2.7,1.9-4.3,2.5c-1.6,0.3-3.1-1.3-4.8-0.1
		c-4.9-6.8-9.4-15.3-14.7-23c-0.7-1-1.7-1.9-1.9-2.5s0.6-2.2,0.6-3.1c0-1.2-0.1-2.3-0.4-3.4C18.9,11.3,23.2,9.3,25,6.8z M20.9,21.4
		c0.9-0.4,1-1,0.4-1.8C20.2,19.1,19.9,20.9,20.9,21.4L20.9,21.4z M22.2,23c0.3-0.1,0.5-0.4,0.4-0.8c0-0.1-0.1-0.2-0.1-0.2
		c-0.3,0-0.6,0.1-0.9,0.3C21.7,22.7,21.8,22.7,22.2,23z M25,29.2c0.1-0.1,0.3-0.1,0.5-0.1C27.5,26.3,22.2,26.9,25,29.2z M30.8,28.9
		c0.4,0.9,0.9,1.2,1.7,0.6c0-0.2,0-0.3,0.1-0.4c-0.1-0.5-0.6-0.9-1.2-0.8C31.2,28.4,30.9,28.6,30.8,28.9L30.8,28.9z M34.8,36.4
		c-0.4,1-0.7,2.1-1,3.1c-0.2,1-0.9,2.4-0.1,3c0.4-2.2,1.3-4.2,1.5-6.4L34.8,36.4z M35.5,42.3c1-1.3,1.1-3.8,1.8-5.5
		c-0.1-0.2-0.2-0.3-0.4-0.1C36.3,38.5,35.4,40.3,35.5,42.3L35.5,42.3z M36.6,43.8c1.2-0.4,1.2-2,1.5-3.1s0.8-2.5,0.5-3.7
		C37,39,36.8,41.4,36.6,43.8L36.6,43.8z"/>
	<path class="st1" d="M28.1,13l0.3-0.1c1.3,4,6,9.1,4.6,12.2c-3.7-0.5-6.2-5-8.7-9.2C25.4,14.9,27.1,14.1,28.1,13z"/>
	<path class="st2" d="M22.4,16.8c0.5-0.4,0.7-0.2,1.2-0.4c0,0.9,0.1,1.7,0.5,2.5C23.4,18.2,22.8,17.5,22.4,16.8z"/>
	<path class="st2" d="M27.7,24.4c1,0.5,1.7,1.5,2.8,1.6C29.3,26.3,28.1,25.6,27.7,24.4z"/>
	<path class="st1" d="M29.9,45.6c2.1,1-0.2,3.2,0,4.7c-0.4,0.1-0.7-0.1-1.2,0.1C28.9,48.7,29.8,47.3,29.9,45.6z"/>
	<path class="st1" d="M32.3,47.1c-0.1,1.1,0.1,2.8-1.3,3.1C31.2,49.3,31,47.1,32.3,47.1z"/>
	<path class="st1" d="M35,46.4c-0.5,1.1-0.5,2.3-1,3.3c-0.5,0.1-0.9,0.2-1.4,0.4C33,48.7,32.7,45.9,35,46.4z"/>
	<path class="st1" d="M27.6,51.2c-0.1,0.5-0.2,0.9-0.3,1.4c-0.4,0.3-0.6-0.2-1-0.2C26.1,51.4,26.7,51.2,27.6,51.2z"/>
	<path class="st1" d="M35.5,46.7c1.3,0.6,2.8,0.3,3.9-0.7c-0.7,1.2-2.4,2-3.9,2.9C35.4,48.1,35.8,47.5,35.5,46.7z"/>
	<path class="st1" d="M29.7,51.2c0.1,0.5-0.2,0.8-0.2,1.3c-0.4,0-0.8,0.1-1.2,0.3C27.9,51.6,28.6,51,29.7,51.2z"/>
	<path class="st1" d="M31.5,51l0.3,0.5c0.3-0.7,1.4-0.8,2.1-0.6c-1.1,0.7-2.4,1.1-3.7,1.3c-0.1-0.6,0.3-1.1,0.9-1.2
		C31.3,51,31.4,51,31.5,51z"/>
	<path class="st1" d="M38.8,48.2c-0.9,1-2.3,2.2-3.8,2.4C35.6,49.5,37.7,49.3,38.8,48.2z"/>
</g>
</svg>
