<svg id="Layer_1" data-name="Layer 1" xmlns="http://www.w3.org/2000/svg" viewBox="0 0 68.41 55.87">
  <g>
    <path d="M19,7.91c-.63-2.1-2.44.32-3.22.9a45.34,45.34,0,0,1-5.27,3.08C6.89,13.87,7,20,8.88,23.08a10.34,10.34,0,0,0,2,2.73c1.39,1,3.35.64,4.72,1.92-2,1.15-5.64.74-7,2.51A10.68,10.68,0,0,1,7.3,34.17c-.58.94-1.31,1.32-1.46,2.27A9.49,9.49,0,0,0,6,38.89a18.85,18.85,0,0,0,2.9,7.72,6,6,0,0,0,1.49,1.85c.64-.13.77-1,1.56-1.19s1.41.34,2.15,0c3,.79,4.41,3.24,6.9,4.56.38-.22,0-1.2.38-1.38,2-.12,2.82,1.41,4.43,1.34.54-.66-.14-1.36-.41-2.06-.56-1.41-1.54-4.63-.63-5.58,0,2.49,1.09,4,3.07,4.49a5.11,5.11,0,0,0,1.31,4.2c-5.77.24-3.63,9.67.76,10.09s4.76-6.36,2.68-8.84a9.38,9.38,0,0,0,5.38-.83c.33.29.69,1.07,1.19,1.46,2.43,1.9,11.88,3.47,11.06-1.94,3.76,1.07,9-1.09,7.61-5.26-.31-.93-1.51-1.42-1.88-2.14a5.37,5.37,0,0,0,2-1c2.47,3.5,12.49,2.6,11.64-3-.09-.62-.47-.82-.6-1.56,1.91-.55,2.7-2.64,2.32-5.12,1.8-.7,3.36-2.11,2.9-4.53-.77-4-9-5.26-11.29-2a9.18,9.18,0,0,0-3-1.45c0-3.05-1.71-6-4.36-6.34-1.76-.21-4.26.66-4.89,2-1.31-.21-3.33-.07-4-.36,1.94-.89,4.15-2.35,3.79-5.12-.42-3.17-6.44-5.17-9-2.48-1,1.08-1.43,2.83-1.34,4.91a6,6,0,0,0-1.57-.09c2.22-3.45-1.25-6.43-4.46-6.82.12-1.05.61-2.64-.22-3.24a13.6,13.6,0,0,1-6.18-.54c-.26-.23-.35-.63-.7-.78C23.75,8.25,21.28,7.07,19,7.91Z" transform="translate(-5.8 -7.07)" fill="#210404" fill-rule="evenodd"/>
    <path d="M10.6,30.52a42.31,42.31,0,0,1,5.29,0,11.5,11.5,0,0,1-.47,1.86c-.5-.38-.75-1-1.38-1.26.14,1.3,1.35,1.52,1.29,3-1-1-1.4-2.66-2.57-3.51a10.72,10.72,0,0,0,2.68,4.09c-.07.47.16.63.1,1.08-1.29-1.45-2.07-3.43-3.56-4.67a20.57,20.57,0,0,0,2.58,4c.25.33.88.73.6,1.18-1.66-1-2.2-3.18-3.57-4.49.39,1.88,2,3.37,3.08,4.88-1.32,1.85-4.93,2-6.94,2.8a9.32,9.32,0,0,1-.12-2.25c.15-.7.94-1,1.27-1.68.25-.51.12-1.19.28-1.67s.53-.68.67-1.08C10.1,32,9.92,31.09,10.6,30.52Zm1.53,7.34a13.7,13.7,0,0,0-2.28-3.42A5.64,5.64,0,0,0,12.13,37.86Zm.58-.69a16,16,0,0,0-2.48-3.71A7,7,0,0,0,12.71,37.17Zm.88-.3A18.15,18.15,0,0,0,11,32.77,9.92,9.92,0,0,0,13.59,36.87Z" transform="translate(-5.8 -7.07)" fill="#fff" fill-rule="evenodd"/>
    <path d="M12.33,38.74a16.4,16.4,0,0,0-2.5,6.1,17,17,0,0,1-1.9-4.69C9,39.25,10.82,39.16,12.33,38.74Z" transform="translate(-5.8 -7.07)" fill="#fff" fill-rule="evenodd"/>
    <path d="M8.74,18.38c1.86.75,3.78,1.43,5.51,2.31,1,2.1,3.38,2.75,3.57,5.65-1.59-1.27-4.51-.13-6.08-1.13a8.93,8.93,0,0,1-1.89-2.53A9.71,9.71,0,0,1,8.74,18.38Z" transform="translate(-5.8 -7.07)" fill="#fff" fill-rule="evenodd"/>
    <path d="M15.65,36.56c.16.88,1,1.8,1,2.83a25.31,25.31,0,0,1-.57,2.55,12.32,12.32,0,0,0,.73,5.1c-.56.09-1.27-.66-2.16-.77-.41-.05-.85.14-1.38.11S12.07,46,11.7,46c-.66.09-.94.77-1.36.89C10.16,41.92,12.75,38.83,15.65,36.56Z" transform="translate(-5.8 -7.07)" fill="#fff" fill-rule="evenodd"/>
    <path d="M12.52,12.37C14.2,11,16.39,10.22,17.78,8.6c.46.33,1.44.75,2,.18a17,17,0,0,0-.44,5.49c.17,2.09,1.64,3.95.73,6.37.94-.42,1.16-1.28,1.95-1.88,2-1.51,6-1,8.91-1.63C30,18,30,20.3,30.24,22c-3.8.18-8.65-.25-10.77,1.85,1.76-1.61,5.81-1.24,9-1.05a15.86,15.86,0,0,1,2.06,0,4.7,4.7,0,0,1,1.87,1.26c-2.77,1-5.81,1.8-6.92,4.47a26.08,26.08,0,0,1-6.68-.83c-1.16-1.9-.11-4.52.54-6.08-.76.25-1.22,1.64-1.45,2.75C15.18,21.32,12.39,18.33,12.52,12.37Z" transform="translate(-5.8 -7.07)" fill="#fff" fill-rule="evenodd"/>
    <path d="M18.72,28.4a18.92,18.92,0,0,0,3.93.85c2.53,1.91,3.15,6.28,4.58,9-.95.1-1.4.7-2.35.8-2.67-.61-3.81-2.78-6-3.87,1.57,1.73,3,3.59,5.62,4.27-.16,1-.9,1.8-.46,3-.53.54-1.6.27-2.55.12-1.27-.2-2.52-.32-3.15-1-1.66-1.68-3.2-8.43-1.26-11.16A4,4,0,0,0,18.72,28.4Zm2.79,5.07a3.83,3.83,0,0,0-2-2.53A4,4,0,0,0,21.51,33.47Zm.68-.49a3.25,3.25,0,0,0-1.78-2.15A3.39,3.39,0,0,0,22.19,33Z" transform="translate(-5.8 -7.07)" fill="#fff" fill-rule="evenodd"/>
    <path d="M17.05,40.47c1.72,3.58,4.52,6.08,6.74,9.16-.81-.05-2.93-.87-3.53.22-1.05-.64-1.76-1.64-2.86-2.23C16.86,45.5,16.39,42.73,17.05,40.47Z" transform="translate(-5.8 -7.07)" fill="#fff" fill-rule="evenodd"/>
    <path d="M18.63,42.41c1.07.3,3,.6,4.32,1-.24,2.07.58,3.89.93,5.68C22.3,46.66,20.1,44.91,18.63,42.41Z" transform="translate(-5.8 -7.07)" fill="#fff" fill-rule="evenodd"/>
    <path d="M20.72,8.58a15,15,0,0,0,4.51.26,9.64,9.64,0,0,0-.86,2.26c-.2,1.52.27,3.48-.26,4.9s-2.76,2.07-3.3,3.56C20.33,15.87,18.91,11.83,20.72,8.58Z" transform="translate(-5.8 -7.07)" fill="#fff" fill-rule="evenodd"/>
    <path d="M23.24,17.67c2.41-2.62,6.52-3.56,9.47-5.66.15,1.22-.59,2.4-.56,3.83C30,17.27,25.89,16.74,23.24,17.67Zm7.93-2.51a.62.62,0,0,0,.09-.78h-.39c-.14.13-.1.43-.1.69C31,15,31,15.18,31.17,15.16Z" transform="translate(-5.8 -7.07)" fill="#fff" fill-rule="evenodd"/>
    <path d="M23.43,29.44a24.52,24.52,0,0,1,3.14.27c2.54,1.83,2.43,6.36,4.29,8.88-.72.08-1.69-.46-2.75-.37C26.08,35.77,25.87,31.48,23.43,29.44Z" transform="translate(-5.8 -7.07)" fill="#fff" fill-rule="evenodd"/>
    <path d="M24.7,15.8c.3-2.1-.24-5.88,1.42-7A13.47,13.47,0,0,0,33,10.25c-.21.81-1.1,1.27-1.75,1.68C29.22,13.18,26.67,14.35,24.7,15.8Z" transform="translate(-5.8 -7.07)" fill="#fff" fill-rule="evenodd"/>
    <path d="M25,41.09a3.71,3.71,0,0,1,1.16-1c.43.13.54.57.7,1a4.65,4.65,0,0,0-1.66,1.58A3.75,3.75,0,0,1,25,41.09Z" transform="translate(-5.8 -7.07)" fill="#fff" fill-rule="evenodd"/>
    <path d="M27.65,42.15c0,.54-.44,1-.48,1.67a3.13,3.13,0,0,0,1.3,2.73c-.06.46-.34.71-.48,1.09C25.55,47.38,25.36,42.66,27.65,42.15Z" transform="translate(-5.8 -7.07)" fill="#fff" fill-rule="evenodd"/>
    <path d="M26.37,28.63C28,26.55,31.1,25.9,34,25a.84.84,0,0,1,.5,1c.71,1.11,2.18,1.47,3,2.52-1.72.29-2.34,1.66-3.81,2.19C31.24,30,29.31,28.8,26.37,28.63Z" transform="translate(-5.8 -7.07)" fill="#fff" fill-rule="evenodd"/>
    <path d="M26.89,57.84c-.32-2.07.25-4.56,2.52-4.33,1,.09,2.15,1.58,2.56,2.52.75,1.69.58,5.63-1.72,5.7C28.5,61.79,27.17,59.66,26.89,57.84Z" transform="translate(-5.8 -7.07)" fill="#fff" fill-rule="evenodd"/>
    <path d="M27.64,40.19c.78-.14,1.65.49,2.65.47v1.08C28.6,42,28.49,40.74,27.64,40.19Z" transform="translate(-5.8 -7.07)" fill="#fff" fill-rule="evenodd"/>
    <path d="M27.56,30c2.9,0,5.19,1.38,7.17,2.59a11.43,11.43,0,0,0,1.81,5.19,3.7,3.7,0,0,0-3.71,1.69C29.77,37.63,29.74,32.71,27.56,30Z" transform="translate(-5.8 -7.07)" fill="#fff" fill-rule="evenodd"/>
    <path d="M27.73,39.5c.82-.48,2.09.14,2.65.57A23.38,23.38,0,0,0,27.73,39.5Z" transform="translate(-5.8 -7.07)" fill="#fff" fill-rule="evenodd"/>
    <path d="M28.15,42.83c1.09-.4,1.76,1.82,2.27,2.34C29.49,44.56,29.07,43.44,28.15,42.83Z" transform="translate(-5.8 -7.07)" fill="#fff" fill-rule="evenodd"/>
    <path d="M29,50.08c.59-.17,1.18.31,1.86.38,2.95.3,5.63-1.07,4.88-3.67.05-.5.22.28.58.09s.07-.57.2-.68a2.83,2.83,0,0,1,2.27,2.14C39.62,53.57,30,54.6,29,50.08Zm7.06,1.22c.73-.57,2.26-3.18.66-3.83-.58.62-.22,1.61-.47,2.26-.51,1.3-1.86,1.55-3.12,2.08A3.07,3.07,0,0,0,36.05,51.3Z" transform="translate(-5.8 -7.07)" fill="#fff" fill-rule="evenodd"/>
    <path d="M29.45,47.13a18.41,18.41,0,0,1,2.67,2.73c-.39.06-.6,0-.59-.39C30.84,48.76,29.42,48.26,29.45,47.13Z" transform="translate(-5.8 -7.07)" fill="#fff" fill-rule="evenodd"/>
    <path d="M29.72,43.21c0-.4.61-.11.88-.2.09.69.93,1.15.89,1.66C30.71,44.75,30.43,43.52,29.72,43.21Z" transform="translate(-5.8 -7.07)" fill="#fff" fill-rule="evenodd"/>
    <path d="M30.92,46.24c.27-.22.53.31.79.58s.58.6.89.88c.59.54,1.59,1.16,1.38,1.75-.23.25-.22-.2-.3-.39-1.09-.73-1.84-1.81-2.86-2.62C30.84,46.36,30.92,46.34,30.92,46.24Z" transform="translate(-5.8 -7.07)" fill="#fff" fill-rule="evenodd"/>
    <path d="M31.4,19.67c2,.58,3.11-1.15,4.6-.92-.26-.52-.06-.63.18-1.08.24.19.33.52.6.68.13-2.23-1.74-3.13-3.37-3.89.14-.13.06-.46.2-.59,2.5,0,5.57,3,3.37,5.07-.79.73-2,.75-3.13,1.3-.81-.54-1.79.34-2.55.12C31.3,20.1,31.26,19.8,31.4,19.67Z" transform="translate(-5.8 -7.07)" fill="#fff" fill-rule="evenodd"/>
    <path d="M31.29,18.89c.27-.08.2.19.4.19,0,.11-.2.07-.2.2C31.32,19.25,31.27,19.11,31.29,18.89Z" transform="translate(-5.8 -7.07)" fill="#fff" fill-rule="evenodd"/>
    <path d="M31.39,18.3c-.05-.31.26-.26.29-.49.2.58.75.81,1,1.36C32.14,19,31.94,18.46,31.39,18.3Z" transform="translate(-5.8 -7.07)" fill="#fff" fill-rule="evenodd"/>
    <path d="M32,45.45c1,.13,1.64,1.61,2.37,2.43.22.25.75.39.6.78-.57.2-1.09-.62-1.58-1.07a15.56,15.56,0,0,0-1.58-1.36A3,3,0,0,0,32,45.45Z" transform="translate(-5.8 -7.07)" fill="#fff" fill-rule="evenodd"/>
    <path d="M32.16,17.41c.6-.07,1.38,1,1.58,1.36C33.08,18.9,32.27,17.84,32.16,17.41Z" transform="translate(-5.8 -7.07)" fill="#fff" fill-rule="evenodd"/>
    <path d="M32.87,45.44c.77,0,1.72.7,2.75.76.11.47-.28,1.1-.38,1.67A18.76,18.76,0,0,0,32.87,45.44Z" transform="translate(-5.8 -7.07)" fill="#fff" fill-rule="evenodd"/>
    <path d="M33.13,40.73c1.18,1,1.58,2.85,2.68,4-.72.18-1.15-.86-1.48-1.46A10.49,10.49,0,0,0,33.13,41Z" transform="translate(-5.8 -7.07)" fill="#fff" fill-rule="evenodd"/>
    <path d="M33.09,22.89a.36.36,0,0,1,.39-.39c.08.24.27.38.3.68C33.53,23.1,33.39,22.91,33.09,22.89Z" transform="translate(-5.8 -7.07)" fill="#fff" fill-rule="evenodd"/>
    <path d="M33.23,16.52A20.16,20.16,0,0,0,35,18.07C34.4,18.7,32.83,17.26,33.23,16.52Z" transform="translate(-5.8 -7.07)" fill="#fff" fill-rule="evenodd"/>
    <path d="M33.32,15.15c1,.54,2.76,1.12,2.18,2.63C34.82,16.91,33.36,16.33,33.32,15.15Z" transform="translate(-5.8 -7.07)" fill="#fff" fill-rule="evenodd"/>
    <path d="M35.08,39.25a20.29,20.29,0,0,0,3.08,5.17c-.24-2.06-2.23-3.73-2.6-5.67,1.09,1.17,1.61,2.92,2.88,3.9-.16-1.49-1.49-2.63-2.19-3.9,1-.56,1,.75,1.58.87.17-.28-.46-.59-.5-1,1.61.28,2.07,1.72,2.86,2.82a3.1,3.1,0,0,0-1.69-3.22c.25-.7,1.09-.8,1.66-1.19a3.89,3.89,0,0,1,2,4.49c-.37,1.9-2.74,2.8-4.58,3.18a25,25,0,0,0-2.88-4.78c.17,1.9,1.71,3.27,2.39,5C36,45,35.73,43.68,35.3,43l-1.49-2.54A2.41,2.41,0,0,1,35.08,39.25Zm4.83,3.29v.3C40.62,43.34,40.61,42,39.91,42.54Z" transform="translate(-5.8 -7.07)" fill="#fff" fill-rule="evenodd"/>
    <path d="M34.45,21.61c.91.69,1.17,2,1.79,3A5.49,5.49,0,0,1,34.45,21.61Z" transform="translate(-5.8 -7.07)" fill="#fff" fill-rule="evenodd"/>
    <path d="M34.92,31.31a6,6,0,0,1,3.51-2,30.7,30.7,0,0,0,2.18,2.24c0,1,.54,1.36.7,2.15A50.3,50.3,0,0,1,34.92,31.31Z" transform="translate(-5.8 -7.07)" fill="#fff" fill-rule="evenodd"/>
    <path d="M35,21.41c0-.15.29,0,.29-.2.73,1.17,1.26,2.54,2,3.71C36.37,24.34,36,22.33,35,21.41Z" transform="translate(-5.8 -7.07)" fill="#fff" fill-rule="evenodd"/>
    <path d="M35.23,33.07c.49-.07,1.17.58,2,.87a14.45,14.45,0,0,0,3.93.75,2.48,2.48,0,0,1-.09,1,3.9,3.9,0,0,0-3.51,2.09C36.21,36.74,35.66,35,35.23,33.07Z" transform="translate(-5.8 -7.07)" fill="#fff" fill-rule="evenodd"/>
    <path d="M36,20.91c.12,0,.18,0,.2-.1,1.3,1.61,2,3.87,3.18,5.56-.2.2-.2.58-.58.59C38.2,24.68,36.6,22.89,36,20.91Z" transform="translate(-5.8 -7.07)" fill="#fff" fill-rule="evenodd"/>
    <path d="M37,20.8c0-.09.09-.17.2-.19a13.91,13.91,0,0,1,1.59,2.73c.48.88,1.44,1.85,1,2.73C38.79,24.38,38.07,22.4,37,20.8Z" transform="translate(-5.8 -7.07)" fill="#fff" fill-rule="evenodd"/>
    <path d="M37.87,20.7c0-.22.49-.05.69-.11.44,1.59,2.4,2.5,1.8,4.5C39.49,23.67,38.84,22,37.87,20.7Z" transform="translate(-5.8 -7.07)" fill="#fff" fill-rule="evenodd"/>
    <path d="M43.63,41.63c2.81-.69,5.81.53,6.19,2.89.76,4.63-5.62,5.87-9.37,4.1a4.6,4.6,0,0,0-1.4-2.74C41.22,45.1,43.08,44,43.63,41.63Zm2.11,7v-.39a.62.62,0,0,0-.69,0A.41.41,0,0,0,45.74,48.67Zm-.44-5.88a5.34,5.34,0,0,1,2,3.62c.07.46-.35,1.09.4,1.17,1-1,.05-2.93-.72-3.92A2.78,2.78,0,0,0,45.4,42.6C45.32,42.62,45.28,42.68,45.3,42.79Zm1.52,5.68a.62.62,0,0,0,0-.69h-.49A.44.44,0,0,0,46.82,48.47Z" transform="translate(-5.8 -7.07)" fill="#fff" fill-rule="evenodd"/>
    <path d="M40,20.88A4.55,4.55,0,0,1,43.19,23a6,6,0,0,0-1.72,6,2.22,2.22,0,0,1-1.27.21,14.55,14.55,0,0,1-1.09-1.37c1.11-1.07,2.72-2.84,2.21-5.31A2.61,2.61,0,0,0,40,20.88Z" transform="translate(-5.8 -7.07)" fill="#fff" fill-rule="evenodd"/>
    <path d="M39.68,51.56c.47.38.68,1,1.19,1.37C40.41,53,39.14,52.21,39.68,51.56Z" transform="translate(-5.8 -7.07)" fill="#fff" fill-rule="evenodd"/>
    <path d="M40.26,49.79A22.92,22.92,0,0,0,43,53.2c0,.22-.48,0-.69.11C42.27,51.94,40.22,51.28,40.26,49.79Z" transform="translate(-5.8 -7.07)" fill="#fff" fill-rule="evenodd"/>
    <path d="M41.05,50.18c.18-.31.42.15.68.09.49,1.16,1.7,2.1,2.08,3C42.72,52.44,42.1,51.09,41.05,50.18Z" transform="translate(-5.8 -7.07)" fill="#fff" fill-rule="evenodd"/>
    <path d="M41.28,30.38c.13-.14.62-.43.79-.21C42.06,30.49,41.48,30.54,41.28,30.38Z" transform="translate(-5.8 -7.07)" fill="#fff" fill-rule="evenodd"/>
    <path d="M41.76,54c2.24.22,4.84-.46,5.08-2.2-.68.05-1.05-.5-1.38-1.07,1.71-.69,3.68,1.64,3.26,3.51C47,55.4,43.43,54.71,41.76,54Z" transform="translate(-5.8 -7.07)" fill="#fff" fill-rule="evenodd"/>
    <path d="M41.67,16.84a24.29,24.29,0,0,1,1.89,3.22A12.94,12.94,0,0,1,41.67,16.84Z" transform="translate(-5.8 -7.07)" fill="#fff" fill-rule="evenodd"/>
    <path d="M48.76,33.75c1.67,1.79.36,5.51-1.62,6.09a17.56,17.56,0,0,0-2.29-4.39c.14,1.5,1.5,3.15,1.8,4.49-.91-.24-.94-1.41-1.29-2.15s-.82-1.56-1.19-2.24c0-.31.43-.9,0-1.08,1.4,0,2.25,1.47,3.45,2-.85-1.41-2.15-2.89-4.34-2.61-.49-.56-1.13-1-1.38-1.75,1.52-.81,2,.31,3.34,1A6.87,6.87,0,0,0,48.76,33.75Zm-1,5.2a13.71,13.71,0,0,0-1.79-3.32A6.76,6.76,0,0,0,47.72,39Z" transform="translate(-5.8 -7.07)" fill="#fff" fill-rule="evenodd"/>
    <path d="M42.44,15.86c.38,1.62,1.57,2.95,2,4.2-1-1-1.34-2.73-2.48-3.61C42,16.15,42.11,15.88,42.44,15.86Z" transform="translate(-5.8 -7.07)" fill="#fff" fill-rule="evenodd"/>
    <path d="M42.8,36.05c.07-.18.18,0,.29,0,.43,1.38,1.43,2.7,1.8,3.81-.71-.27-.8-1.24-1.1-1.86S43.08,36.68,42.8,36.05Z" transform="translate(-5.8 -7.07)" fill="#fff" fill-rule="evenodd"/>
    <path d="M42.74,15.86c0-.22.41,0,.59-.11.46,1.61,1.49,2.64,2.28,3.91,0,.18-.32.07-.29.29C44.06,19,43.87,17,42.74,15.86Z" transform="translate(-5.8 -7.07)" fill="#fff" fill-rule="evenodd"/>
    <path d="M42.83,15.27c2.21-1.23,6.64.06,5.81,2.89-.51,1.71-2.66,3.08-4.48,3.57-.27-.29-.68-.43-.79-.88a1.19,1.19,0,0,1,1.08.29c.93-.64,2.68-1,2.23-2.67-.55,0-.38.73-.88.79-.48-1.29-1.53-2.52-2-3.51a6.08,6.08,0,0,1,1.76.38C45.14,15.36,44.12,15.18,42.83,15.27Zm3.36,3.11A3,3,0,0,0,45,16.62,7.56,7.56,0,0,0,46.19,18.38Z" transform="translate(-5.8 -7.07)" fill="#fff" fill-rule="evenodd"/>
    <path d="M43.21,25.46c0-.2.15-.21.29-.1.85,2,2.25,4,3,5.76-.7,0-.68-.92-.89-1.37C45,28.37,44,26.81,43.21,25.46Z" transform="translate(-5.8 -7.07)" fill="#fff" fill-rule="evenodd"/>
    <path d="M43.38,35.85c0-.11.2-.07.2-.2.81,1.29,1.39,2.81,2.09,4.2-.67-.36-.86-1.26-1.19-2A8.69,8.69,0,0,0,43.38,35.85Z" transform="translate(-5.8 -7.07)" fill="#fff" fill-rule="evenodd"/>
    <path d="M43.61,39.57c.18-.27.35.29.4.49C43.52,40.26,43.86,39.62,43.61,39.57Z" transform="translate(-5.8 -7.07)" fill="#fff" fill-rule="evenodd"/>
    <path d="M43.8,50.84c1.21-.44,1.7.71,2.16,1.36-.26.06-.24.41-.58.4A10.62,10.62,0,0,0,43.8,50.84Z" transform="translate(-5.8 -7.07)" fill="#fff" fill-rule="evenodd"/>
    <path d="M48.1,50.13a5.3,5.3,0,0,0,3.11-3.75c2.87-.63,6.38,1,5,3.78a5.18,5.18,0,0,1-3,1.79A5.27,5.27,0,0,1,48.1,50.13Z" transform="translate(-5.8 -7.07)" fill="#fff" fill-rule="evenodd"/>
    <path d="M50.37,39c.64.28,1,1.23,1.49,1.95s1.24,1.28,1.38,2C52,41.92,51.4,40.25,50.37,39Z" transform="translate(-5.8 -7.07)" fill="#fff" fill-rule="evenodd"/>
    <path d="M51,38.24c.42-.19.56.55.79.88.78,1.1,1.89,2.4,2.58,3.6-.84-.29-1.29-1.24-1.78-1.94a20.18,20.18,0,0,0-1.68-2.34C50.84,38.32,50.88,38.26,51,38.24Z" transform="translate(-5.8 -7.07)" fill="#fff" fill-rule="evenodd"/>
    <path d="M51,33.24a7.21,7.21,0,0,1,1.79,2.54A5,5,0,0,1,51,33.24Z" transform="translate(-5.8 -7.07)" fill="#fff" fill-rule="evenodd"/>
    <path d="M51.61,22.65c2.94-2.77,7.09.55,6.31,4H56.45C55.87,24.26,53.9,23.29,51.61,22.65Z" transform="translate(-5.8 -7.07)" fill="#fff" fill-rule="evenodd"/>
    <path d="M53.19,35.67a.42.42,0,0,0,.09-.29c.27-.07.2.19.4.19C53.69,35.79,53.33,35.62,53.19,35.67Z" transform="translate(-5.8 -7.07)" fill="#fff" fill-rule="evenodd"/>
    <path d="M53.94,31.94c.59.4.8,1.17,1.19,1.76A4.33,4.33,0,0,1,53.94,31.94Z" transform="translate(-5.8 -7.07)" fill="#fff" fill-rule="evenodd"/>
    <path d="M54.82,31.35a14.79,14.79,0,0,1,1.79,2.73A4.22,4.22,0,0,1,54.82,31.35Z" transform="translate(-5.8 -7.07)" fill="#fff" fill-rule="evenodd"/>
    <path d="M55.5,30.66c1,.5,1.26,2.6,2.48,3.21-.16-1.48-1.53-2.59-1.9-4.2,1.13,1.23,1.76,3,2.88,4.2-.32.33-1.16.15-1.77.21C56.79,32.78,55.93,31.93,55.5,30.66Z" transform="translate(-5.8 -7.07)" fill="#fff" fill-rule="evenodd"/>
    <path d="M56.37,28.59c.34-.08.37.14.68.09.5,1.75,1.94,3.36,2.88,5-.67.35-.86-.49-1.08-.87a37.93,37.93,0,0,0-2.48-3.9Z" transform="translate(-5.8 -7.07)" fill="#fff" fill-rule="evenodd"/>
    <path d="M59.8,41.7c.71.5,1.18,1.24,1.88,1.75C60.83,43.48,60.21,42.44,59.8,41.7Z" transform="translate(-5.8 -7.07)" fill="#fff" fill-rule="evenodd"/>
    <path d="M59.89,40.33c.9,1.09,2.27,2.23,3,3.21-1.23-.62-1.88-1.84-3-2.62Z" transform="translate(-5.8 -7.07)" fill="#fff" fill-rule="evenodd"/>
    <path d="M64.06,34.71c1.27.91,3.85,1,5.69.54.3,1.66-.28,3.68-1.44,3.74-.5,0-1-.71-1.77-1a9.9,9.9,0,0,0-4.32-.26c-.38-.34-.84-.59-.89-1.27A10.3,10.3,0,0,0,64.06,34.71Z" transform="translate(-5.8 -7.07)" fill="#fff" fill-rule="evenodd"/>
    <path d="M69.2,28a5,5,0,0,1-.84,5.11C70,33,71,30.77,70.58,28.58a2.78,2.78,0,0,1,1,4.6c-1.21,1.12-6.78,1.45-7.85,0C61.56,30.07,64.69,26.84,69.2,28Z" transform="translate(-5.8 -7.07)" fill="#fff" fill-rule="evenodd"/>
    <path d="M8.84,18c.14-2.58,1-4.43,3-5.22a13.14,13.14,0,0,0,1.82,7C12.38,19.26,10.25,18.72,8.84,18Z" transform="translate(-5.8 -7.07)" fill="#fff" fill-rule="evenodd"/>
    <path d="M16.26,26.65a2.56,2.56,0,0,1,1.67.77c.45,2.76-2.86,2.72-5.47,2.49,1.31-.49,3.41-.2,4.3-1.11C17,28.05,17.21,26.74,16.26,26.65Z" transform="translate(-5.8 -7.07)" fill="#fff" fill-rule="evenodd"/>
    <path d="M30,46.54c.52-.19.64.5.89.78a26.31,26.31,0,0,0,2.47,2.33,2.53,2.53,0,0,1-1.19-.77A20.75,20.75,0,0,1,30,46.54Z" transform="translate(-5.8 -7.07)" fill="#fff" fill-rule="evenodd"/>
    <path d="M31.56,40.45c1.49.59,1.85,2.86,2.58,3.9-1.07-.85-1.22-2.65-2.28-3.51a4.71,4.71,0,0,0,1,2.74A3.18,3.18,0,0,1,31.56,40.45Z" transform="translate(-5.8 -7.07)" fill="#fff" fill-rule="evenodd"/>
    <path d="M39,20.69c0-.22.49,0,.69-.1.28.9.73,1.63,1,2.54C40,22.36,39.63,21.39,39,20.69Z" transform="translate(-5.8 -7.07)" fill="#fff" fill-rule="evenodd"/>
    <path d="M39.51,53.82c.29-.2.6.44,1,.48C40.22,54.47,39.77,54,39.51,53.82Z" transform="translate(-5.8 -7.07)" fill="#fff" fill-rule="evenodd"/>
    <path d="M41.48,18c.53.56.76,1.41,1.29,1.95C42.27,19.79,41.74,18.78,41.48,18Z" transform="translate(-5.8 -7.07)" fill="#fff" fill-rule="evenodd"/>
    <path d="M42.42,50.56c1.1.14,1.84,1.49,2.47,2.43-.62.23-1.06-.56-1.38-1A9.56,9.56,0,0,0,42.42,50.56Z" transform="translate(-5.8 -7.07)" fill="#fff" fill-rule="evenodd"/>
    <path d="M43.63,29.18c0-.11.51.91.79,1.17C44,30.5,43.83,29.57,43.63,29.18Z" transform="translate(-5.8 -7.07)" fill="#fff" fill-rule="evenodd"/>
    <path d="M48.35,32.09c.4.06.28-.38.29-.69.68-.33,1.58-.88,1.36-1.78-.52.07-.87,1.15-1.75,1.19A20.44,20.44,0,0,0,45,25.15a18.67,18.67,0,0,1,2.35.28.57.57,0,0,0-.09.39,23.3,23.3,0,0,0,2.48,3.51,11.61,11.61,0,0,0-2.29-3.71c0-.23.43-.06.49,0-.48-.83-2.23-1-3.34-.56a28.94,28.94,0,0,1,1.6,3c.52,1,1,2,1.49,3-.75,0-.94-1-1.19-1.46a34.82,34.82,0,0,0-2.78-5c2.21-2.05,10.61-.86,11.19,2.07s-1.29,3.89-3.29,4.83-4.09,1.45-6.08.15C46.14,32,48,31.43,48.35,32.09Zm-2.2-6.36A19.86,19.86,0,0,0,49,30.41C48.3,28.62,47.61,26.78,46.15,25.73Zm4.23,2.61a6.23,6.23,0,0,0-1.88-2.43A5.59,5.59,0,0,0,50.38,28.34Zm-.51-3.13c-.1-.49-.57-.6-1.18-.58v.3A1.9,1.9,0,0,0,49.87,25.21Zm2.36.57c-.52.6.2,1.07.3,1.67.31,1.73-.71,2.57-1.83,3.24C53.08,31.64,54.81,26.57,52.23,25.78Z" transform="translate(-5.8 -7.07)" fill="#fff" fill-rule="evenodd"/>
    <path d="M48.91,40.51c-.26-.25.29-.21.29-.49.84.8,1.3,2,2.18,2.73C50.43,42.52,50.18,40.74,48.91,40.51Z" transform="translate(-5.8 -7.07)" fill="#fff" fill-rule="evenodd"/>
    <path d="M49.88,39.52a29.25,29.25,0,0,0,2.48,3.32A8.93,8.93,0,0,1,49.88,39.52Z" transform="translate(-5.8 -7.07)" fill="#fff" fill-rule="evenodd"/>
    <path d="M52.71,37.84c1.54-.25,1.8,1.66,2.86,2.23-.62-1.38-1.55-3.3-4.33-2.81,3.51-1.22,7.86.26,7.09,4.16-.48,2.43-3.67,3.47-6.94,3.09,0-.39-.2-.59-.2-1,2.47.41,6.08-.89,5.07-3.57-.48.9-.54,2.19-1.65,2.47-.83-1.72-2-3.09-3-4.68,1.15,0,1.42,1.28,1.88,1.94a10.5,10.5,0,0,0,1.78,2.05A14.21,14.21,0,0,0,52.71,37.84Z" transform="translate(-5.8 -7.07)" fill="#fff" fill-rule="evenodd"/>
    <path d="M53.17,33.62c1.72,1.3,8.19,2.34,8.22-1.34-.37-.08-.37.21-.48.39-.8-1-1.21-2.33-2.28-3a13.74,13.74,0,0,0,1.09,2c.37.54,1.29,1.12.7,1.76-1.3-1.24-1.85-3.26-3.17-4.48a11.6,11.6,0,0,1,3.25,1.54c-.5-1.33-2.46-2.05-4-2.61a7.72,7.72,0,0,1,5.7,1.62,3.74,3.74,0,0,0,.72,4.4c-1.22,1.79-4.51,2.42-7.24,1.83C54.87,34.92,53.87,34.42,53.17,33.62Z" transform="translate(-5.8 -7.07)" fill="#fff" fill-rule="evenodd"/>
    <path d="M65,40.29c0-.8-1.3-1-2.17-1.26,3.32-1,7.05,2.14,5,4.67-1.72,2.15-7.68,2.27-9.32.07.93.44,2.48.25,3.24.86.45-.44,1.48-.3,2.26-.41.65-.62,1.63-.92,1.75-2.08-.37-.31-.4.33-.79.31a16,16,0,0,0-3.06-2.92c.28,1.31,2.27,2.23,2.77,3.31a5.64,5.64,0,0,1-2-1.46c-.62-.56-1.09-1.35-1.88-1.65.65,1.52,2.45,2.39,3.17,3.51-.78-.07-1.41-1-2-1.56a11.52,11.52,0,0,1-1.69-2C61.8,38.77,63.72,39.62,65,40.29Zm-1.28-.48A4.94,4.94,0,0,0,66.18,42,5.8,5.8,0,0,0,63.71,39.81Z" transform="translate(-5.8 -7.07)" fill="#fff" fill-rule="evenodd"/>
    <path d="M59.42,42.59c.25.1.33.38.59.48C59.88,43.22,59.42,42.89,59.42,42.59Z" transform="translate(-5.8 -7.07)" fill="#fff" fill-rule="evenodd"/>
  </g>
</svg>
