<?xml version="1.0" encoding="utf-8"?>
<!-- Generator: Adobe Illustrator 25.4.1, SVG Export Plug-In . SVG Version: 6.00 Build 0)  -->
<svg version="1.1" id="Layer_1" xmlns="http://www.w3.org/2000/svg" xmlns:xlink="http://www.w3.org/1999/xlink" x="0px" y="0px"
	 viewBox="0 0 19.3 66.4" style="enable-background:new 0 0 19.3 66.4;" xml:space="preserve">
<style type="text/css">
	.st0{fill-rule:evenodd;clip-rule:evenodd;fill:#210404;}
	.st1{fill-rule:evenodd;clip-rule:evenodd;fill:#FFFFFF;}
</style>
<g>
	<path class="st0" d="M14.8,33.3c-0.1-2-0.1-4.4-0.6-5.9c-0.4-0.9-0.9-1.7-1.7-2.4c-0.5-0.5-1.3-1-1.5-1.5c-0.2-0.9-0.3-1.8-0.3-2.6
		c-0.1-0.9-0.2-1.9-0.1-2.8c0.1-0.3,0.3-0.6,0.3-1c0.2-0.9,0-1.9,0.1-2.8C10.6,14,9.6,13.9,8.7,14C8.2,14,7.2,14.2,7,14.6
		c-0.4,0.5-0.3,1.9-0.1,2.7c0.1,0.4,0.4,0.5,0.4,0.8c0.1,1,0.1,2,0,3c0,1,0.2,2.2,0,2.9c-0.2,0.7-1,1-1.6,1.6
		c-0.6,0.6-1,1.3-1.4,2.1c-0.4,1-0.3,2.3-0.3,3.6c0,0.9,0,1.8,0.1,2.8c0.1,3.6,0.2,7.3,0.3,10.8c0.1,2.9,0,5.4,1.5,6.7
		c0.9,0.8,2.6,1,4.3,1c1.6,0,3.3-0.2,4.1-1c1-1,0.8-3.7,0.9-5.5c0.1-2.3,0-4.5-0.1-6.4C15.1,37.5,15,35.5,14.8,33.3z"/>
	<path class="st1" d="M8.3,14.7c0.2,0,0,0.4,0.3,0.3c-0.2,0.2-0.5-0.1-0.9,0C7.9,14.8,8.1,14.8,8.3,14.7z"/>
	<path class="st1" d="M10,14.8C9.6,14.9,9.2,15,8.7,15C9.1,14.7,9.6,14.6,10,14.8z"/>
	<path class="st1" d="M9.5,15.5c-0.5,0.2-1.1,0.2-1.7,0.1C8.2,15.3,9,15.7,9.5,15.5z"/>
	<path class="st1" d="M10.6,15.6c-0.2,0.2-0.5,0.3-0.9,0.3C10,15.7,10.3,15.6,10.6,15.6z"/>
	<path class="st1" d="M7.3,15.8c0.2,0.3,0.8,0.1,1.1,0.3C8.2,16.3,7.5,16,7.3,15.8z"/>
	<path class="st1" d="M9.5,15.9c0.1,0.2-0.2,0.1-0.2,0.2C9.1,16.1,9.3,15.9,9.5,15.9z"/>
	<path class="st1" d="M8.6,16H9c0,0.2-0.1,0.2-0.3,0.2V16z"/>
	<path class="st1" d="M10.5,16.2c0.1,0,0,0.3,0.1,0.4c-0.2,0.2-0.5,0.3-0.8,0.3v-0.5C10,16.3,10.3,16.3,10.5,16.2z"/>
	<path class="st1" d="M7.4,16.3c0.1,0,0.2,0.1,0.3,0.1v0.4C7.4,16.9,7.4,16.6,7.4,16.3z"/>
	<path class="st1" d="M9.3,16.5c0.2,0,0.2,0.5-0.1,0.4C9.2,16.7,9.2,16.5,9.3,16.5z"/>
	<path class="st1" d="M8,16.5c0.2,0,0.4,0,0.4,0.2c0,0.2-0.2,0.2-0.4,0.2V16.5z"/>
	<path class="st1" d="M9,16.6C9,16.9,8.9,17,8.6,16.9C8.6,16.6,8.7,16.5,9,16.6z"/>
	<path class="st1" d="M10.5,17.1c0,0.3-0.5,0.1-0.6,0.3C9.6,17.1,10.3,17.2,10.5,17.1z"/>
	<path class="st1" d="M7.6,17.2c0.1,0,0.1,0.2,0.2,0.4C7.5,17.6,7.6,17.4,7.6,17.2z"/>
	<path class="st1" d="M8,17.3h0.3c0,0.2,0.1,0.2,0.1,0.3H8V17.3z"/>
	<path class="st1" d="M8.6,17.3c0.1,0,0.2,0,0.3,0.1v0.3H8.6V17.3z"/>
	<path class="st1" d="M9.2,17.3h0.2c0,0.2,0,0.3-0.2,0.3V17.3z"/>
	<path class="st1" d="M10,18C10.1,18,10.1,18,10,18c0.1,0.7,0.1,1.5,0.2,2.3c0,0.5,0.3,1.2-0.1,1.4c-0.3-1-0.2-2.4-0.3-3.6
		C9.9,18.1,10,18,10,18z"/>
	<path class="st1" d="M9.4,18.1c0.4,1,0.1,2.6,0.4,3.6c-0.6,0.1-1.2,0.2-1.8,0.2c0-1.2,0-2.4,0.1-3.7C8.6,18.2,9,18.2,9.4,18.1z"/>
	<path class="st1" d="M10.3,21.9c0.2,0,0.1,0.3,0.1,0.4c-0.7,0.3-1.6,0.3-2.3,0.1c0.6-0.2,1.3-0.2,1.9-0.4c0,0.1,0.1,0.1,0.1,0.2
		C10,22.2,10.1,22,10.3,21.9z"/>
	<path class="st1" d="M10.6,23.7C10.1,24.3,8.8,24,8,24c0.1,0.5,1.4,0.4,2.2,0.4c0.7,1.1,1.3,2.3,1.8,3.5C10.2,28.5,7.9,28.3,6,28
		C5.8,28,6.1,28,6,28.2c-0.2,0-0.4-0.1-0.6-0.1c0.2,0.5,1.2,0.9,1.9,1c0.7,0.1,1.4-0.1,2.1,0c0,0.7,0.1,1.5,0.3,2.2
		c-0.2,0.1-0.3,0.1-0.5,0.1c0-0.7-0.1-1.3-0.2-2.1c-0.2,0.7-0.2,1.4,0.1,2c-1.5,0-3.4,0.1-4.5-0.5c0-1.6-0.1-2.8,0.6-3.6
		c0.2-0.3,0.6-0.6,0.9-1c0.5-0.6,0.9-0.9,1.4-1.4c0.3-0.5,0.5-1.1,0.5-1.7c0.8,0.2,1.6,0.1,2.4-0.2C10.5,23.1,10.6,23.4,10.6,23.7z
		 M5.2,28c0.1,0,0.2-0.1,0.3-0.2c0-0.1,0-0.1-0.1-0.2c-0.1,0-0.2,0-0.3,0.2C5.2,27.9,5.2,27.9,5.2,28z"/>
	<path class="st1" d="M12.6,27.1c0.2,0.1,0.2,0.3,0.3,0.5C12.7,27.7,12.7,27.3,12.6,27.1z"/>
	<path class="st1" d="M13.8,28.3c0.1,0,0.1,0,0.1,0.1c0.1,0.3,0.1,0.6,0.1,1c0,0.2-0.1,0.4-0.1,0.1C13.9,29,13.9,28.6,13.8,28.3z"/>
	<path class="st1" d="M13.6,28.3c0.1,0,0,0.1,0.1,0.1c-0.1,0.4-0.1,0.7-0.1,1.1c0,0.4-0.1-0.2-0.1-0.4c-0.1-0.1,0-0.5-0.1-0.6
		C13.4,28.3,13.6,28.4,13.6,28.3z"/>
	<path class="st1" d="M13.1,28.5h0.2c-0.1,0.9,0.1,1.7,0,2.5C13.1,30.2,13,29.4,13.1,28.5z"/>
	<path class="st1" d="M12.6,28.6h0.2c0,0.8,0,1.6,0.1,2.4C12.6,30.2,12.5,29.4,12.6,28.6z"/>
	<path class="st1" d="M12.1,28.7h0.2c0,0.6,0,1.6,0.1,2.3C12.2,30.3,12.1,29.5,12.1,28.7z"/>
	<path class="st1" d="M11.9,28.8c0,0.8,0,1.5,0.1,2.3h-0.4c0-0.8-0.1-1.5-0.2-2.2C11.6,28.9,11.7,28.8,11.9,28.8z"/>
	<path class="st1" d="M11.1,28.9c0.1,0.7,0.1,1.5,0.2,2.2c-0.2,0-0.3,0.1-0.5,0.1c0-0.8-0.1-1.4-0.2-2.2
		C10.6,28.9,10.9,28.9,11.1,28.9z"/>
	<path class="st1" d="M10.3,29c0,0.7,0.1,1.5,0.2,2.2c-0.2,0-0.2,0.2-0.5,0.2c0-0.8-0.2-1.5-0.3-2.3C9.9,29,10.1,28.9,10.3,29z"/>
	<path class="st1" d="M4.7,31.4l0.8,0.2c0.1,0.2,0.1,0.4,0.1,0.6c-0.3-0.1-0.5-0.2-0.8-0.3C4.8,31.7,4.8,31.6,4.7,31.4z"/>
	<path class="st1" d="M13.9,31.4c0.2,0,0.1,0.1,0.2,0.2C14.1,31.8,13.7,31.6,13.9,31.4z"/>
	<path class="st1" d="M13.7,31.6c0,0.4-0.5,0.3-0.8,0.4L12,32.1c0-0.2-0.1-0.3-0.1-0.4C12.5,31.6,13.1,31.6,13.7,31.6z"/>
	<path class="st1" d="M5.8,31.7c0.1,0,0.1,0.1,0.2,0.1v0.6C5.7,32.3,5.8,31.9,5.8,31.7z"/>
	<path class="st1" d="M6.3,31.7c0.2,0,0.2,0.1,0.4,0.1c0,0.2-0.1,0.3-0.1,0.6C6.2,32.5,6.3,32,6.3,31.7z"/>
	<path class="st1" d="M11.4,31.7h0.2c0,0.2,0.1,0.5-0.1,0.5C11.4,32.3,11.3,31.8,11.4,31.7z"/>
	<path class="st1" d="M11,31.8c0,0.3,0.1,0.3,0.1,0.6c-1.4,0.1-2.7,0.1-4.1,0.1v-0.6C8.4,31.9,9.6,31.8,11,31.8z"/>
	<path class="st1" d="M14.2,32C14.2,32,14.3,32,14.2,32c0.4,4,0.4,7.9,0.3,11.9C14.3,40,14,35.9,14,32.1C14.1,32,14.1,32,14.2,32z"
		/>
	<path class="st1" d="M13.7,32.2c0,0,0.1,0.1,0.1,0.1c0,4.1,0.2,7.9,0.3,11.9c-2.6,0.7-7,0.8-9-0.5c-0.3-3.5-0.2-7.5-0.3-11.2
		C7.2,33.1,11.5,33.2,13.7,32.2z M13.1,40.2c0.1-1-0.5-2.2-0.3-3.3c0.1-0.4,0.5-0.8,0.5-1.2c0.1-0.9-0.9-2.4-1.5-2.1
		c-0.6-0.1-1,0.3-1.5,0.4c-1.2,0.2-2.4-0.1-3.3-0.4c-0.3,0.3-1.3,0.9-1.3,1.5C5.8,35.4,6,35.7,6.2,36c0.3,0.4,0.5,1,0.4,1.6
		c-0.1,0.9-0.5,1.6-0.4,2.5c0.2,1.1,0.9,2,1.8,2.5c0.6,0.3,0.9,0.3,1.5,0.9C10.9,42.6,12.9,42.2,13.1,40.2L13.1,40.2z M5.2,35.1
		c0.3,0.4,0.6,0.9,0.8,1.4c0.4,1.6-0.8,3.9,0.2,5.3c0.4,0.6,0.9,1,1.5,1.4C6.8,42,6,41.4,6,39.6c0-0.7,0.3-1.5,0.3-2.2
		c-0.1-0.8-0.3-1.6-0.8-2.3c0.2-0.5,0.8-1,0.7-1.4C5.8,34.1,5.5,34.6,5.2,35.1z M13.3,40c-0.1,2.4-2.4,2.6-3.5,3.9
		c1.7-0.8,3.7-1.7,3.7-4c0,0,0-0.1-0.1-0.1S13.3,39.9,13.3,40z"/>
	<path class="st1" d="M13,35.5c-0.4,0.5-0.6,1.2-0.6,1.8c0,1.1,0.5,2.1,0.3,3c-0.3,1.4-1.6,1.7-2.8,2.4c-2-0.6-3.5-1.7-3.2-4.1
		c0.1-0.6,0.4-1.2,0.3-1.8c-0.1-0.5-0.4-1-0.7-1.5c0.4-0.3,0.6-0.9,1.1-1.2c1.3,1,3.6,0.4,4.6-0.4C12.4,34.3,12.7,34.9,13,35.5z
		 M11.1,36.2c-0.4,0.2-1,0.1-1-0.4c0.1-0.1,0.3-0.1,0.2-0.3c-0.5,0-0.6,0.3-0.9,0.5c-0.3-0.5-0.9-0.8-1.5-0.7
		c-0.2,0.4-0.4,0.8-0.6,1.2c0.3-0.4,1,0,1-0.6c0-0.2-0.4-0.2-0.5-0.2c0.7-0.7,1.8,0.4,1.2,1.2c-0.7-0.4-1.3,0.3-1.1,1.1
		c-0.5,0-0.9,0.4-0.9,0.9c0,0.1,0,0.2,0,0.3c0.2,0.2,0.6,0.3,0.9,0.1c0,0.4,0.2,0.4,0.4,0.6c-0.3,0.2-0.2,1.1,0.3,1
		c0,0.7,0.8,0.6,1.1,0.2c0.7,0.1,0.6-0.5,1.1-0.5c0.1-0.2,0.2-0.4,0.2-0.6c0.5-0.1,0.5-0.8,0.2-1.1c0.1-0.1,0.1-0.2,0.1-0.4
		c-0.1-0.2-0.2-0.5-0.4-0.5c-0.1-0.3-0.2-0.7-0.6-0.6c-0.1-0.2-0.2-0.3-0.3-0.4c-0.2,0-0.4,0.1-0.4,0c0-0.4,0.1-0.6,0.3-0.8
		c0,0.8,1.3,0.8,1.6,0.3c0.1,0.1,0.5,0.1,0.5-0.1c-0.1-0.1-0.3,0-0.4-0.2c0.2-0.1,0.1-0.4,0.1-0.6C11.2,34.9,10.6,35.8,11.1,36.2
		L11.1,36.2z"/>
	<path class="st1" d="M11.2,35.5h0.1c0,0.1,0,0.4-0.2,0.4C11.1,35.8,11.1,35.6,11.2,35.5z"/>
	<path class="st1" d="M9.8,37.1c0.3-0.1,0.3,0.2,0.3,0.4c-0.2,0-0.2-0.1-0.4-0.1C9.7,37.3,9.7,37.2,9.8,37.1z"/>
	<path class="st1" d="M9,37.2v0.5c-0.2,0.1-0.3,0.2-0.5,0.1C8.2,37.5,8.5,37,9,37.2z"/>
	<path class="st1" d="M9.3,37.2c0.2,0,0,0.4,0.2,0.4c0,0.2-0.1,0.1-0.2,0.3C9.3,37.7,9.4,37.4,9.3,37.2z"/>
	<path class="st1" d="M10.4,37.5c0.4-0.1,0.4,0.6,0.2,0.7C10.2,38.1,10.3,37.7,10.4,37.5z"/>
	<path class="st1" d="M9.9,38.6c-0.3-0.1-0.4-0.7-0.1-0.9C10.2,37.8,10.2,38.5,9.9,38.6z"/>
	<path class="st1" d="M9.2,38.1c0.2,0.2,0.3,0.8-0.1,0.9c-0.3,0-0.3-0.4-0.3-0.7C9,38.2,9.1,38.2,9.2,38.1z"/>
	<path class="st1" d="M11,38.2c0.2,0,0.2,0.2,0.2,0.5c-0.1,0-0.2,0-0.3,0.1c-0.1,0,0-0.2-0.1-0.2C10.8,38.4,11,38.4,11,38.2z"/>
	<path class="st1" d="M8.4,38.3c0,0.5-0.3,0.7-0.8,0.8c-0.1-0.3,0.1-0.7,0.4-0.8C8.1,38.2,8.2,38.2,8.4,38.3z"/>
	<path class="st1" d="M10.3,38.6c0.1,0,0.1,0.1,0.2,0.1c0,0.4,0,0.8-0.4,0.8C10,38.9,10.2,38.9,10.3,38.6z"/>
	<path class="st1" d="M8.5,39c0.2,0.1,0.2,0.3,0.5,0.3c-0.1,0.1-0.2,0.2-0.3,0.3C8.4,39.6,8.3,39.1,8.5,39z"/>
	<path class="st1" d="M11.1,39c0.3,0.1,0.3,0.8-0.2,0.6C10.8,39.4,10.8,39,11.1,39z"/>
	<path class="st1" d="M9.8,39.2c0,0.3,0,0.5-0.3,0.5C9.3,39.5,9.4,39.1,9.8,39.2z"/>
	<path class="st1" d="M10.5,39.5c0.2,0,0.2,0.3,0.5,0.3c-0.1,0.2-0.1,0.4-0.2,0.5C10.7,40.1,10.6,39.8,10.5,39.5z"/>
	<path class="st1" d="M10.2,39.7c0.4,0.2,0.4,1.1-0.1,1C9.7,40.7,9.7,39.8,10.2,39.7z"/>
	<path class="st1" d="M9.1,39.8c0.1,0.3,0.2,0.9-0.3,0.8C8.5,40.3,8.8,39.9,9.1,39.8z"/>
	<path class="st1" d="M9.4,40h0.2c-0.2,0.5,0.4,1-0.3,1.1c0,0,0-0.2-0.1-0.2C9.2,40.6,9.5,40.5,9.4,40z"/>
	<path class="st1" d="M5.1,44.3C5.2,44.3,5.2,44.3,5.1,44.3c0.8,0.3,1.5,0.5,2.3,0.7c0.2,0,0.6-0.2,0.5,0.2c-1,0-1.9-0.1-2.8-0.5
		V44.3z"/>
	<path class="st1" d="M14.1,44.6c-0.1,0.3-0.5,0.2-0.8,0.4C13.3,44.6,13.9,44.8,14.1,44.6z"/>
	<path class="st1" d="M12.9,44.9c0,0.2,0.1,0.2,0.1,0.3c-0.2,0-0.2,0.1-0.3,0.1c0-0.2-0.1-0.2-0.1-0.4
		C12.7,44.9,12.8,44.9,12.9,44.9z"/>
	<path class="st1" d="M12.3,45.1v0.4c-0.6,0.1-1.1,0.2-1.7,0.2C11.1,45.5,11.6,44.9,12.3,45.1z"/>
	<path class="st1" d="M8.3,45.1h0.3v0.3C8.3,45.5,8.2,45.3,8.3,45.1z"/>
	<path class="st1" d="M8.9,45.1h1.5c-0.5,0.2-1,0.3-1.5,0.3V45.1z"/>
	<path class="st1" d="M13.8,48.6c-0.1-0.9,0-2.1-0.2-3c0.1-0.1,0.2-0.1,0.3-0.2C14.1,46.5,14.1,47.6,13.8,48.6z"/>
	<path class="st1" d="M5.1,45.6C6,45.7,7.1,46.1,8,46.1c0.2,0,0.5,0,0.8,0c0.4,0.1,0.7,0.2,1.1,0.3c0.5,0,1,0,1.5-0.1
		c-0.1,0.7,0.2,1.3,0,1.8c-0.3-0.1-0.2-0.6-0.3-1c-0.2,0.2,0.1,0.8-0.1,1c-0.6,0-0.3-1.1-0.5-1.5c-0.1,0.4,0.1,0.9,0,1.5
		c-1.4,0.2-2.9,0.2-4.1,0.6c1.3,0.1,2.7-0.4,4.1-0.2c0,0.6,0,1.1,0.1,1.6c-1.5-0.1-3.3-0.1-4.4-0.5c-0.8-0.3-0.8-0.7-0.9-1.9
		C5.1,47.1,5.1,46.4,5.1,45.6z"/>
	<path class="st1" d="M13.2,45.8c0.1,0.8,0.2,1.7,0.1,2.5c-0.2-0.8-0.2-1.7-0.2-2.5C13.1,45.9,13.2,45.9,13.2,45.8z"/>
	<path class="st1" d="M12.5,46c0.2,0.7,0.2,1.5,0.1,2.2c-0.2-0.7-0.2-1.4-0.2-2.2C12.4,46.1,12.5,46.1,12.5,46z"/>
	<path class="st1" d="M11.7,46.2h0.2c0.2,0.6,0.2,1.3,0.1,1.9c-0.4-0.3-0.2-1.2-0.3-1.8L11.7,46.2z"/>
	<path class="st1" d="M10.8,48.6h0.3c0.1,0.6,0.1,1.2,0.1,1.7C10.6,50.2,10.9,49,10.8,48.6z"/>
	<path class="st1" d="M11.4,48.6c0.1,0,0.1,0.1,0.2,0.1c-0.1,0.7,0.2,1.7-0.1,1.9C11.5,50.1,11.3,49.1,11.4,48.6z"/>
	<path class="st1" d="M11.8,48.7H12c0.2,0.7,0.2,1.4,0,2.2C11.8,50.3,11.9,49.4,11.8,48.7z"/>
	<path class="st1" d="M12.5,48.9c0.3,0.6,0.3,1.3,0,1.9V48.9z"/>
	<path class="st1" d="M13.1,49c0.3,0.2,0.2,1.3,0.1,1.5C13,50.2,13.2,49.5,13.1,49z"/>
	<path class="st1" d="M13.8,49.4c0.1,0.2,0.4,0.8,0,0.8V49.4z"/>
	<path class="st1" d="M5.5,49.8c0.8,0.6,2.1,0.7,3.4,0.8c-0.1,0.2-0.3,0.2-0.3,0.3C7.4,50.7,6,50.7,5.5,49.8z"/>
	<path class="st1" d="M11.2,50.5c0,0.2-0.1,0.3-0.2,0.4c0,0,0,0,0,0C10.9,50.6,11,50.5,11.2,50.5z"/>
	<path class="st1" d="M10.6,50.6c-0.2,0.1-0.3,0.3-0.5,0.3c0-0.1,0.2-0.3,0-0.3C10.2,50.6,10.4,50.6,10.6,50.6z"/>
	<path class="st1" d="M9.9,50.6c-0.2,0.1-0.3,0.3-0.6,0.3C9.3,50.7,9.5,50.6,9.9,50.6z"/>
	<path class="st1" d="M13.8,50.9c0.1,0.2-0.4,0.4-0.7,0.4C13.1,51,13.6,51.1,13.8,50.9z"/>
	<path class="st1" d="M6.2,51c0.6,0,1.2,0.4,1.9,0.4c0,0.1,0,0.2,0.1,0.2C7.5,51.6,6.8,51.4,6.2,51z"/>
	<path class="st1" d="M12.7,51.3c0,0.2-0.2,0.2-0.4,0.2c0-0.1,0.1-0.1,0.1-0.2C12.6,51.4,12.6,51.2,12.7,51.3z"/>
	<path class="st1" d="M12.3,51.5c-0.1,0.2-0.4,0.1-0.6,0.2C11.7,51.7,12,51.2,12.3,51.5z"/>
	<path class="st1" d="M8.9,51.5c0,0.1-0.1,0.1-0.1,0.2H8.3C8.4,51.6,8.6,51.3,8.9,51.5z"/>
	<path class="st1" d="M9.6,51.5c0,0.1-0.2,0.1-0.2,0.3H9C9.2,51.6,9.4,51.5,9.6,51.5z"/>
	<path class="st1" d="M10.3,51.5c0,0.1,0,0.2,0,0.3H9.7C9.8,51.6,9.9,51.5,10.3,51.5z"/>
	<path class="st1" d="M10.9,51.5c-0.1,0.2-0.3,0.4-0.6,0.3C10.5,51.6,10.7,51.5,10.9,51.5z"/>
	<path class="st1" d="M10.4,24.3c0.2,0,0.2-0.1,0.4-0.1c0.1,0.3,0.3,0.7,0.5,1C10.8,25.1,10.5,24.7,10.4,24.3z"/>
	<path class="st1" d="M11.4,24.6c0.5,0.4,0.9,1,1,1.6C11.9,25.9,11.7,25.1,11.4,24.6z"/>
	<path class="st1" d="M11.1,25.6c0.7,0.2,1.1,1.5,1.4,2.2c-0.4-0.2-0.5-0.7-0.7-1.1C11.5,26.3,11.3,25.9,11.1,25.6z"/>
	<path class="st1" d="M12.6,26c0.4,0.2,0.7,0.9,1,1.4c0,0.1-0.2,0.1-0.3,0.2C13,27.1,12.9,26.5,12.6,26z"/>
</g>
</svg>
