<svg id="Layer_1" data-name="Layer 1" xmlns="http://www.w3.org/2000/svg" viewBox="0 0 44.35 66.09">
  <g>
    <path d="M48,54.53c2-.7,2.58-3.31,1.81-5.71,2-.69,3.64-4.91,1.27-6.43.32-.52.11-1.86.18-2.35,2.11,0,2.73-1.44,3-3.26,3.28,1.7,5.77-5.46,1.45-5.35.92-1.14.49-3.36-.18-4.44a2.67,2.67,0,0,1,2-.27c-.37,2.6,1,5.57,3.17,4.8,1-.36,1.74-1.95,1.45-3.53-.24-1.32-2-3.33-3.8-2.35-.46-.53-1.77-.1-2.36-.28.48-1.89-.12-4.12-1.9-4.34-.54-1.45-3-1.42-4-.37-.24-.27-.74-.29-1.09-.45-.12-1.36-1.58-1.38-1.9-2.53,2.11-.19,3.73-.87,4.53-2.36-.48-.4-1.17-.58-1.54-1.09-.84.09-1.33-.18-1.27-1,1.24.16,2.92.2,3.53-.55-.24-1.14,1-.86.63-2.08.1-.38.74-.23.73-.72-1.16-.47-2.35-1.77-3.9-1.91-1.36-.11-2,.81-3.08,1.09-.17-.83.41-1.32.28-1.81-1.84-.5-2.72,1-4.08,1,0,.87-1.11,1.93-1.18,2.53s.5,1.06.46,1.63c-1.31.12-1.93,1.4-2.72,1.72,0-1.5.2-3.22.09-4.52a3.8,3.8,0,0,0-2,.36c-.31.58.17,1.47-.09,2A6.16,6.16,0,0,1,33,8.25c1.79.6,3.61-1,3.89-2.63.21-1.24-.38-3.14-1.26-3.53s-2.16.25-2.9,0a5.34,5.34,0,0,0-1.72,3.8c-.89-.65-.86-2.22-1.09-3.53C28,4,29.59,7.19,31.41,7.88c0,.22-.14.34-.09.64,1.07,1.74,1.42,4.38,3.44,5.16.82.32,1.78-.08,2.81.36a1.29,1.29,0,0,1-.18.73c-1.71-1.06-4.25,0-5.26.72A3.72,3.72,0,0,0,32,13.05c-.77-.44-1.66-.76-2.44-1.18-.7.56-1.69.16-2.72.09-.41.16-.36.79-.72,1-1.29-1.1-5.3-1.08-6.16.36.33.58.78.72.72,1.54.14.37.6.42.82.72.07,1.59,1.89,1.91,2.44,2.72-.76.14-1.37-.68-2.08-.82a4.13,4.13,0,0,0-3.53,1.18,1.81,1.81,0,0,0,.27.82,9.73,9.73,0,0,1-.82,1.26c.13,2.83.44,7.05.64,9.33.1-.09.44-.39.54-.18-.44,1.55.11,3.14,1.72,3.17a2.46,2.46,0,0,0,.91,1.72c-2.55,1.17-2.46,7.66,1.81,6.07-.15,2.38.74,4.4,3,3.8.07,2.44.87,4.15,3.62,3.9A3.81,3.81,0,0,0,31.59,47c.08.28.5.22.63.45a3.18,3.18,0,0,0-.54,2c-2.12.86-1.7,5,.73,5.26a3.1,3.1,0,0,0,1.81,2.17c-.78,4.55,5.23,5.41,4.62.45h.9a3.17,3.17,0,0,0,1,3.26c-1.09,1.43-1.46,4.9.81,5.26A2.68,2.68,0,0,0,44.36,68c1.66-.23,2.33-2.63,1.45-4.26a3.41,3.41,0,0,0,.36-2.89C49.63,61.14,49.32,56.34,48,54.53ZM35,3.72c1.59,1.14,0,4-2.08,3C33,5.07,33.11,3.48,35,3.72Zm2,12.5a6.66,6.66,0,0,0-.45,1.45c-.77-.42-2.17-1.3-3.71-.73A3.61,3.61,0,0,1,37,16.22Zm6.25-2.81a9.56,9.56,0,0,1-.54,3.53,4.24,4.24,0,0,1-1.18,1.63c-.55,0-1.3-2-1.72-2.26A7.82,7.82,0,0,1,43.27,13.41Zm-4.71,4.26c.47.44.65,1.16,1.36,1.35-.52.45-.39,1.54-1.27,1.63-.18-.57-.61-.89-.81-1.44C38,18.63,38.42,18.27,38.56,17.67Z" transform="translate(-17.82 -1.96)" fill="#210404" fill-rule="evenodd"/>
    <path d="M34.4,2.72c-1.09.57-2.14,1.19-2.36,2.63A2.06,2.06,0,0,1,34.4,2.72Z" transform="translate(-17.82 -1.96)" fill="#fff" fill-rule="evenodd"/>
    <path d="M45.63,7.79a3,3,0,0,0-1,2.36c-.57.09-1.68-.64-1.08-1.45C44.53,8.68,44.63,7.79,45.63,7.79Z" transform="translate(-17.82 -1.96)" fill="#fff" fill-rule="evenodd"/>
    <path d="M46,7.88c.06.5-.11,1.65.27,2.09,1.26.09,1.9-1.42,2.9-1.54.48-.06.91.3,1.45.36-.45,2.27-4,1.44-5.52,2.63A3.62,3.62,0,0,1,46,7.88Z" transform="translate(-17.82 -1.96)" fill="#fff" fill-rule="evenodd"/>
    <path d="M32,8.07c.15,0,.16.08.27.09A7.21,7.21,0,0,0,36.57,13C34,12.77,32.79,10.34,32,8.07Z" transform="translate(-17.82 -1.96)" fill="#fff" fill-rule="evenodd"/>
    <path d="M52.78,9.88a5.17,5.17,0,0,1-2.9.45,4.61,4.61,0,0,0,1-1.27C51.84,9,52.11,9.64,52.78,9.88Z" transform="translate(-17.82 -1.96)" fill="#fff" fill-rule="evenodd"/>
    <path d="M43.18,9.7c.31.41,1,.49,1.45.72,0,.81.42,1.5-.18,1.9-.76-.35-1.89-.11-2.08-1.18C42.69,10.71,42.89,10.16,43.18,9.7Z" transform="translate(-17.82 -1.96)" fill="#fff" fill-rule="evenodd"/>
    <path d="M38.84,10.42a19.43,19.43,0,0,1-.55,6c0-1.57.66-4.15-.09-5.71C38.19,10.38,38.54,10.42,38.84,10.42Z" transform="translate(-17.82 -1.96)" fill="#fff" fill-rule="evenodd"/>
    <path d="M52.42,10.42c.46,1-1,1.11-.72,2-1.27-.27-1.87-1.21-3.08-1.54C49.59,10.43,51.54,11,52.42,10.42Z" transform="translate(-17.82 -1.96)" fill="#fff" fill-rule="evenodd"/>
    <path d="M51.15,12.59c-.64.42-1.88.07-2.71.09a1.3,1.3,0,0,0-.28,1.09c.17.94,1.43,1.1,2.18,1.45C47.86,16.46,47.27,13,46,11.78,47.73,10.1,49.59,11.85,51.15,12.59Z" transform="translate(-17.82 -1.96)" fill="#fff" fill-rule="evenodd"/>
    <path d="M46.44,15.76a19.91,19.91,0,0,0,.27-2c.79,1,1.39,2.18,3.27,2.08a3.86,3.86,0,0,1-2.36,1c-.31.07-.55.33-.91.27-1.32-.23-.93-2.21-.81-3.62a4.84,4.84,0,0,0-.18,3.44,2.68,2.68,0,0,0-1.27-.72,9.06,9.06,0,0,1-.27-1.91c.06-.65.6-2.4,1.45-2.35C47.16,12,46.21,14.51,46.44,15.76Z" transform="translate(-17.82 -1.96)" fill="#fff" fill-rule="evenodd"/>
    <path d="M28.51,13.68a10.91,10.91,0,0,1,1.63,3.71c-2.29.33-1.72-2.2-2.9-3a17.14,17.14,0,0,0,.91,2.53c-1.23-.25-2.33-1.42-3.44-2.08a4.43,4.43,0,0,0-.27-2.09c1,.09,2.87,2.05,2.8-.27a18.8,18.8,0,0,1,4.08.91C32,14.91,31,16,30.68,17.3,29.86,16.19,29.69,14.43,28.51,13.68Z" transform="translate(-17.82 -1.96)" fill="#fff" fill-rule="evenodd"/>
    <path d="M24.44,14.59c-.8-.47-1.23-1.32-2.36-1.45C23.08,12.26,24.94,12.72,24.44,14.59Z" transform="translate(-17.82 -1.96)" fill="#fff" fill-rule="evenodd"/>
    <path d="M25.25,15.76c-.82.26-2.1-.22-3,.09-.1-.59-.34-1-.9-1.17a1.87,1.87,0,0,0-.09-1.09C23.07,12.84,23.93,15.15,25.25,15.76Z" transform="translate(-17.82 -1.96)" fill="#fff" fill-rule="evenodd"/>
    <path d="M30.32,17.85c.14.16-.49.84-.81,1.08a6,6,0,0,1-4.08,1c-2.1-.15-3.69-1.18-5.79-.91,1.69-1.46,4.43.93,5.79-.27-.46-1.34-2.14-1.48-3-2.44a9,9,0,0,1,3.26-.09C26.88,16.49,28.22,18.51,30.32,17.85Zm-4.53,1.26c.46.11.57-.45.37-.72h-.27C25.74,18.52,25.8,18.85,25.79,19.11Zm1-.36a.19.19,0,1,0,0-.36C26.8,18.64,26.64,18.57,26.79,18.75Z" transform="translate(-17.82 -1.96)" fill="#fff" fill-rule="evenodd"/>
    <path d="M44.27,17.12a16.92,16.92,0,0,1,1.27,1.63A3.43,3.43,0,0,0,44,20.38a7.71,7.71,0,0,0-.91-1.27A10,10,0,0,0,44.27,17.12Z" transform="translate(-17.82 -1.96)" fill="#fff" fill-rule="evenodd"/>
    <path d="M45.54,17.48c.68-.07.84.37,1,.82A1.54,1.54,0,0,1,45.54,17.48Z" transform="translate(-17.82 -1.96)" fill="#fff" fill-rule="evenodd"/>
    <path d="M36.39,19c-1.41,1.13-4.08.78-4.62-.9C33.3,17.21,36,17.67,36.39,19Z" transform="translate(-17.82 -1.96)" fill="#fff" fill-rule="evenodd"/>
    <path d="M31.23,17.94c.73.62.93,1.78,2.08,2-.18.49-.83.5-.9,1.09.67-.05.9-.55,1.26-.91a6,6,0,0,1,2.18.91,4.72,4.72,0,0,1-.27,3.08c-.67-.36-1-1.06-1.91-1.18-.47.64.38,1.19.64,1.9A5.81,5.81,0,0,1,34,28.9c-.42-.79-1.16-1.27-1.63-2,.16-2.61-.87-4-1-6.34-.4,1.52.72,3.05.54,4.44-.15,1.23-1.08,1.7-1.9,2.45-.5-1.22.21-3.66-1.09-4.08a4.61,4.61,0,0,0-1.81,1.9,8.34,8.34,0,0,1,0-4.62A15.28,15.28,0,0,0,31.23,17.94Zm.18,1.9c0-.4-.05-.74-.36-.82C31.09,19.37,31.15,19.7,31.41,19.84Zm1.18,2c.29,0,.4-.26.63-.36.08.13.14.29.36.27a1.9,1.9,0,0,0,.73-1.09c-.17,0-.21-.09-.18-.27C33.38,20.58,32.63,21.23,32.59,21.83Zm1.63,4.44a.51.51,0,0,0-.18-.73C33.91,25.7,33.83,26.36,34.22,26.27Z" transform="translate(-17.82 -1.96)" fill="#fff" fill-rule="evenodd"/>
    <path d="M27,20.2c-1,.32-1.5,1.27-2.44,1.45-1.59.3-3.21-1.43-4.89-.45,1.54-.23,2.86.4,4.34.72.05.43-.67.82-1,1.18a16.34,16.34,0,0,0-4.26-.18,11.4,11.4,0,0,1,.72-3.62C22.24,18.91,24.2,20.57,27,20.2Z" transform="translate(-17.82 -1.96)" fill="#fff" fill-rule="evenodd"/>
    <path d="M46.26,24.19c-.17-.57.73-.85.73-1.54a9.24,9.24,0,0,1-1.18-.18A.59.59,0,0,1,45.9,22c-.19-.2-.29.08-.45-.09a4.41,4.41,0,0,1,0-1.81c.6-.7,1.83-1,2.35-.18C48.75,21.46,47.31,23.73,46.26,24.19Z" transform="translate(-17.82 -1.96)" fill="#fff" fill-rule="evenodd"/>
    <path d="M41,23a2.54,2.54,0,0,1-1.09-2.81C42.37,17.32,44.77,23.2,41,23Z" transform="translate(-17.82 -1.96)" fill="#fff" fill-rule="evenodd"/>
    <path d="M36.84,19.57a8.61,8.61,0,0,1,.73,2.71A5.35,5.35,0,0,0,34.85,20,3.79,3.79,0,0,1,36.84,19.57Z" transform="translate(-17.82 -1.96)" fill="#fff" fill-rule="evenodd"/>
    <path d="M51.51,23.91h-.63a4.18,4.18,0,0,0-.18-2.8c.55-.46,2.15-.71,2.26,0,0,.22-.35.23-.54.45A4.8,4.8,0,0,0,51.51,23.91Z" transform="translate(-17.82 -1.96)" fill="#fff" fill-rule="evenodd"/>
    <path d="M44.81,20.74c.31.71-.51,1.06-.54,1.73C44,21.79,44.51,21.13,44.81,20.74Z" transform="translate(-17.82 -1.96)" fill="#fff" fill-rule="evenodd"/>
    <path d="M26.7,20.84c-.33,1.56.1,3.76-.09,5.61a13.86,13.86,0,0,0-1.72.54C24.77,24.26,24.51,21.44,26.7,20.84Z" transform="translate(-17.82 -1.96)" fill="#fff" fill-rule="evenodd"/>
    <path d="M49.07,21.11c1.53.3,1.11,3.11-.09,3.44-.19-.48-.56-.77-.73-1.27A4.59,4.59,0,0,0,49.07,21.11Z" transform="translate(-17.82 -1.96)" fill="#fff" fill-rule="evenodd"/>
    <path d="M36.39,21.56a3.65,3.65,0,0,1,1,3.53c-.43-.3-1-.42-1.27-.9A8.9,8.9,0,0,0,36.39,21.56Z" transform="translate(-17.82 -1.96)" fill="#fff" fill-rule="evenodd"/>
    <path d="M54.5,25.82a2.15,2.15,0,0,0-1.44-.28c-.1-.62-.63-.82-.91-1.26.1-1.08.35-2,1-2.36C55.1,20.85,55.67,24.55,54.5,25.82Z" transform="translate(-17.82 -1.96)" fill="#fff" fill-rule="evenodd"/>
    <path d="M44.9,22c.21,0,.1.26.28.27-.2.47-.6.74-.82,1.18-.18-.09-.19-.35-.18-.63C44.55,22.69,44.7,22.32,44.9,22Z" transform="translate(-17.82 -1.96)" fill="#fff" fill-rule="evenodd"/>
    <path d="M24.53,22.28c-.25,1.28.17,3.44-.09,5a6.14,6.14,0,0,1-2.09.72c.31-1.11-.11-2.16.09-3.08C22.7,23.71,24,23.11,24.53,22.28Z" transform="translate(-17.82 -1.96)" fill="#fff" fill-rule="evenodd"/>
    <path d="M22.62,23.46c-1.13,1.74-2,3.74-3.35,5.25.15-2-.6-3.67-.36-5.52C20.22,22.88,21.43,23.36,22.62,23.46Z" transform="translate(-17.82 -1.96)" fill="#fff" fill-rule="evenodd"/>
    <path d="M39.83,23.1c1.13.53-.28,1-.45,1.72-.17,0-.23-.19-.45-.18C39,23.85,39.51,23.6,39.83,23.1Z" transform="translate(-17.82 -1.96)" fill="#fff" fill-rule="evenodd"/>
    <path d="M43.36,23.1a1.79,1.79,0,0,1,.19.81c-.2-.11-.36-.25-.55-.36C43.06,23.34,43.3,23.31,43.36,23.1Z" transform="translate(-17.82 -1.96)" fill="#fff" fill-rule="evenodd"/>
    <path d="M43.45,26.36a3.22,3.22,0,0,0-1.72,1.36,3.08,3.08,0,0,0-1.35,0c.16-1.13-.61-1.43-.55-2.27C40,23.3,43.9,23.68,43.45,26.36Z" transform="translate(-17.82 -1.96)" fill="#fff" fill-rule="evenodd"/>
    <path d="M46.71,26.09c.22-.27,0-.46-.27-.27a1.78,1.78,0,0,1-.27-.91c.68-.11.91-.66,1.54-.81C48.58,25.06,48.15,26.82,46.71,26.09Z" transform="translate(-17.82 -1.96)" fill="#fff" fill-rule="evenodd"/>
    <path d="M28.69,24.82a11.88,11.88,0,0,1,.09,2.35c-.29,0-.38-.16-.72-.09C28.26,26.32,28.25,25.34,28.69,24.82Z" transform="translate(-17.82 -1.96)" fill="#fff" fill-rule="evenodd"/>
    <path d="M45.18,25c.12.34-.51.71-.64,1.09C44.42,25.75,44.94,25.28,45.18,25Z" transform="translate(-17.82 -1.96)" fill="#fff" fill-rule="evenodd"/>
    <path d="M22.08,25.27A6.15,6.15,0,0,1,22,28.08c-.76-.09-1.06.27-1.72.27C20.79,27.24,21.51,26.33,22.08,25.27Z" transform="translate(-17.82 -1.96)" fill="#fff" fill-rule="evenodd"/>
    <path d="M38.38,25.27c1.78.75.3,3.52-.27,4.62A3.73,3.73,0,0,1,37,29.8c-.8-.85-.73-2.81-.18-3.89C37.27,26.65,38.51,26.16,38.38,25.27Z" transform="translate(-17.82 -1.96)" fill="#fff" fill-rule="evenodd"/>
    <path d="M35.76,25.36c.41,0,0,.42,0,.55C35.51,25.82,35.88,25.62,35.76,25.36Z" transform="translate(-17.82 -1.96)" fill="#fff" fill-rule="evenodd"/>
    <path d="M57.76,25.91c-.77.31-2,.19-2.53.72C55.55,25.87,56.65,25.88,57.76,25.91Z" transform="translate(-17.82 -1.96)" fill="#fff" fill-rule="evenodd"/>
    <path d="M31.86,26c.31,1.67-.67,2.83-1.18,4A2,2,0,0,1,30,28C30.65,27.39,31.5,26.93,31.86,26Z" transform="translate(-17.82 -1.96)" fill="#fff" fill-rule="evenodd"/>
    <path d="M53.33,31.07a3.57,3.57,0,0,1-1-2.9c.07-1.06.53-2.63,1.81-1.63C55.2,27.37,56.05,31.59,53.33,31.07Z" transform="translate(-17.82 -1.96)" fill="#fff" fill-rule="evenodd"/>
    <path d="M46.44,26.45a.4.4,0,0,0,.27.09c-.2.49-.64.74-.9,1.18C45.64,27.27,46.34,26.92,46.44,26.45Z" transform="translate(-17.82 -1.96)" fill="#fff" fill-rule="evenodd"/>
    <path d="M59.12,26.54c2.21-.61,2.6,3.89.91,4C58.76,30.59,57.46,27,59.12,26.54Z" transform="translate(-17.82 -1.96)" fill="#fff" fill-rule="evenodd"/>
    <path d="M47.35,26.63a7.27,7.27,0,0,1-1,1.27c.31.23.09.5,0,.81-.23-.12-.25-.46-.36-.72C46.61,27.71,46.64,26.83,47.35,26.63Z" transform="translate(-17.82 -1.96)" fill="#fff" fill-rule="evenodd"/>
    <path d="M47.71,26.9c.12,0,.08.23.09.37h-.36C47.47,27.08,47.68,27.09,47.71,26.9Z" transform="translate(-17.82 -1.96)" fill="#fff" fill-rule="evenodd"/>
    <path d="M51.51,27.17c.08.65-.76,2-1.44,1.64C50.77,28.49,51,27.68,51.51,27.17Z" transform="translate(-17.82 -1.96)" fill="#fff" fill-rule="evenodd"/>
    <path d="M32.22,27.36a4.75,4.75,0,0,1,1.45,2,2.17,2.17,0,0,0-.72.54C32.52,29.16,31.74,28.49,32.22,27.36Z" transform="translate(-17.82 -1.96)" fill="#fff" fill-rule="evenodd"/>
    <path d="M43.45,27.45a4,4,0,0,1-1.08,1.26C42.54,28.11,42.75,27.52,43.45,27.45Z" transform="translate(-17.82 -1.96)" fill="#fff" fill-rule="evenodd"/>
    <path d="M49.43,29.62a5.76,5.76,0,0,0-1.08,3.17c-1.17-.48-1.8-2.18-1.54-3.62C47.16,27.22,49.15,28,49.43,29.62Z" transform="translate(-17.82 -1.96)" fill="#fff" fill-rule="evenodd"/>
    <path d="M27.61,28.44c1.45,1.28.73,5.79-1.36,5.26-1.44-.37-1.53-5.09.09-5.62.46-.1.46.27.63.45C27.15,28.45,27.4,28.24,27.61,28.44Zm-1.36,5A4.94,4.94,0,0,1,27.88,29C26.24,28.89,25.38,31.88,26.25,33.42Z" transform="translate(-17.82 -1.96)" fill="#fff" fill-rule="evenodd"/>
    <path d="M41.73,28.71c-.3,1.42.42,3.1-.9,3.27a1.35,1.35,0,0,1-1.45-1.54c.07-.86,1.1-1.37,1.09-2.18A1.39,1.39,0,0,1,41.73,28.71Z" transform="translate(-17.82 -1.96)" fill="#fff" fill-rule="evenodd"/>
    <path d="M24.44,28.53c0,.42-.26.59-.37.91a3,3,0,0,0-2.26.36c0-.27-.24-.56-.09-.72A25.59,25.59,0,0,0,24.44,28.53Z" transform="translate(-17.82 -1.96)" fill="#fff" fill-rule="evenodd"/>
    <path d="M31.86,28.62A4.92,4.92,0,0,1,32.59,30a1.24,1.24,0,0,1-1.45.55C31.32,29.84,31.64,29.28,31.86,28.62Z" transform="translate(-17.82 -1.96)" fill="#fff" fill-rule="evenodd"/>
    <path d="M43.27,29.08c.43.85-.56,1.06-.72,1.63C42.25,30,43.11,29.64,43.27,29.08Z" transform="translate(-17.82 -1.96)" fill="#fff" fill-rule="evenodd"/>
    <path d="M20.72,32.07c-1.43.09-1.54-3,0-2.9A2.63,2.63,0,0,1,20.72,32.07Z" transform="translate(-17.82 -1.96)" fill="#fff" fill-rule="evenodd"/>
    <path d="M50,33.79c-.69-1.37-.09-4.23,1.44-4,.66.1.92,1.19.73,2.08A2.76,2.76,0,0,1,50,33.79Z" transform="translate(-17.82 -1.96)" fill="#fff" fill-rule="evenodd"/>
    <path d="M29.33,29.89A15.44,15.44,0,0,1,30.87,32c.44,0,.62-.35,1.08-.37a3.07,3.07,0,0,1-1.17,2.45C28.48,34.2,29,31.6,29.33,29.89Z" transform="translate(-17.82 -1.96)" fill="#fff" fill-rule="evenodd"/>
    <path d="M24.16,30c-.13.88.43,2,.28,2.81-.2,1-2.52,1.94-2.9.54C21.1,31.74,22.38,29.75,24.16,30Z" transform="translate(-17.82 -1.96)" fill="#fff" fill-rule="evenodd"/>
    <path d="M33.31,34.24c.49-.33,1.34-1.15,1.9-.82.73-.14,1-1.81.37-2.26-.19,1.05-1.5,1-1.91,1.81-.13.13-.07.29.18.27,0,.26-.38.22-.45.46-.21-.34,0-1.06-.09-1.54.47-.68,1.82-2.45,2.81-1.72C37.59,31.52,35,36.45,33.31,34.24Z" transform="translate(-17.82 -1.96)" fill="#fff" fill-rule="evenodd"/>
    <path d="M43.27,30.35c.32.56-.23,1-.63,1.17C42.63,30.91,43.1,30.78,43.27,30.35Z" transform="translate(-17.82 -1.96)" fill="#fff" fill-rule="evenodd"/>
    <path d="M38.65,30.71c.17.1.08.47.19.63a3.93,3.93,0,0,0-1.36.18v-.45A1.57,1.57,0,0,0,38.65,30.71Z" transform="translate(-17.82 -1.96)" fill="#fff" fill-rule="evenodd"/>
    <path d="M43.91,31.52c-.28.3-.48.67-.91.82C42.78,31.91,43.56,31.11,43.91,31.52Z" transform="translate(-17.82 -1.96)" fill="#fff" fill-rule="evenodd"/>
    <path d="M38.29,36.05a3.48,3.48,0,0,0-2.53-.72c.53-1,1.32-1.7,1.54-3a4.83,4.83,0,0,1,2-.27C41.17,33.24,39.76,35.63,38.29,36.05Z" transform="translate(-17.82 -1.96)" fill="#fff" fill-rule="evenodd"/>
    <path d="M52.87,32.16c.33,0,1,.22,1.27,0,0,.62-.67,1.32-.72,2.17-.54-.12-.7-.63-1.45-.54C52.25,33.22,52.77,32.9,52.87,32.16Z" transform="translate(-17.82 -1.96)" fill="#fff" fill-rule="evenodd"/>
    <path d="M42.28,33.24a4.06,4.06,0,0,0-1.36-.09c0-.21-.16-.26-.09-.54C41.78,32.42,42.11,32.23,42.28,33.24Z" transform="translate(-17.82 -1.96)" fill="#fff" fill-rule="evenodd"/>
    <path d="M57,32.79c.61,2-1.62,4.31-2.9,2.54A5.91,5.91,0,0,1,54.5,33,2,2,0,0,1,57,32.79Z" transform="translate(-17.82 -1.96)" fill="#fff" fill-rule="evenodd"/>
    <path d="M28.33,33.42a14.64,14.64,0,0,0,1.27,1.45.44.44,0,0,0-.27.28,2.33,2.33,0,0,0-1.54-.28C27.38,34.1,28,33.9,28.33,33.42Z" transform="translate(-17.82 -1.96)" fill="#fff" fill-rule="evenodd"/>
    <path d="M26.7,34.51c.36,1.85-.35,3.38-2.35,3.17-.86-1-.34-3.1.45-3.8A2.92,2.92,0,0,0,26.7,34.51Z" transform="translate(-17.82 -1.96)" fill="#fff" fill-rule="evenodd"/>
    <path d="M32,34c.3,0,.15.52.18.81-.26,0-.27-.2-.54-.18C31.63,34.31,31.94,34.28,32,34Z" transform="translate(-17.82 -1.96)" fill="#fff" fill-rule="evenodd"/>
    <path d="M47.35,38.59a2.92,2.92,0,0,0-1.9-1.36c-.07-1.71.13-2.93,2.08-2.9a3.84,3.84,0,0,1,1,3.26C48.34,38.21,47.61,38.16,47.35,38.59Zm0-1.27c.52,0,1-1.15.36-1.36A2.6,2.6,0,0,0,47.35,37.32Z" transform="translate(-17.82 -1.96)" fill="#fff" fill-rule="evenodd"/>
    <path d="M43.64,38.5a16.07,16.07,0,0,1-1.45-1.27c-.13-1.5.34-3.16,1.63-2.81S44.85,38.19,43.64,38.5Z" transform="translate(-17.82 -1.96)" fill="#fff" fill-rule="evenodd"/>
    <path d="M52.42,34.6c1.33.94,1,4.91-1.09,4.44C49.69,38.67,50,34.19,52.42,34.6Zm-.18,3.81c-.41-.5-.48-1.34-.82-1.91C50.89,37.1,51.15,38.93,52.24,38.41Z" transform="translate(-17.82 -1.96)" fill="#fff" fill-rule="evenodd"/>
    <path d="M40.74,35c.07.41.13,1.58-.27,1.82C40.66,36.28,40.4,35.33,40.74,35Z" transform="translate(-17.82 -1.96)" fill="#fff" fill-rule="evenodd"/>
    <path d="M23.17,35.24c-.05,1.37-.25,2.81.81,3.26-.43.65-1.29,1.52-2.26,1.35C19.92,39.55,21,34.84,23.17,35.24Z" transform="translate(-17.82 -1.96)" fill="#fff" fill-rule="evenodd"/>
    <path d="M32,39.4c-1.65,1.29-3.24-.09-2.71-2.53.4.77.36,2,1.63,1.9-.29-.65-1.07-1.2-.91-2.45a2.93,2.93,0,0,1,.36-.9C32.68,35,32.37,38,32,39.4Z" transform="translate(-17.82 -1.96)" fill="#fff" fill-rule="evenodd"/>
    <path d="M27.79,35.69c.47,0,.67.35.9.63a6.42,6.42,0,0,0-.18,3c-.9.71-2.59.56-2.62-.81A3,3,0,0,0,27.79,35.69Z" transform="translate(-17.82 -1.96)" fill="#fff" fill-rule="evenodd"/>
    <path d="M40,35.78c.09,0,.07.11.09.18.06.3-.07.35-.09.45C39.86,37.56,39.9,36.47,40,35.78Z" transform="translate(-17.82 -1.96)" fill="#fff" fill-rule="evenodd"/>
    <path d="M36,37.05c0,.49-.48.49-.55.9,0,.16.16.21.37.18-.29.56-.68,1-1,1.54,1.4,0,2.11-1.51,3.26-2.08.12,1.54-1.67,1.86-2.26,3-1-.33-2.06-.44-2.27-1.45-.14-.68.38-1.59-.09-2.35C34.39,36.4,35.57,36.05,36,37.05Z" transform="translate(-17.82 -1.96)" fill="#fff" fill-rule="evenodd"/>
    <path d="M37,36.32c0,.31-.41.61-.63.46C36.35,36.37,36.62,36.28,37,36.32Z" transform="translate(-17.82 -1.96)" fill="#fff" fill-rule="evenodd"/>
    <path d="M37.48,36.68c.21,0,.2.29.36.37-.29.46-.88.62-1.18,1.08C36.33,37.41,37.21,37.12,37.48,36.68Z" transform="translate(-17.82 -1.96)" fill="#fff" fill-rule="evenodd"/>
    <path d="M47.35,42.75a3.51,3.51,0,0,0-1.54.27c-1.74-.1-1.47-2.54-1.36-4,.36,0,.49-.78.82-.54C47.17,38.71,46.72,41.27,47.35,42.75Z" transform="translate(-17.82 -1.96)" fill="#fff" fill-rule="evenodd"/>
    <path d="M49.88,42.57c-.52,0-.73.41-1.26.45-.18-.86-1-1.53-1.09-2.53s.74-2.25,1.9-1.54C50.39,39.53,50.42,41.54,49.88,42.57Z" transform="translate(-17.82 -1.96)" fill="#fff" fill-rule="evenodd"/>
    <path d="M41.28,39c-.07.81-1,1.55-1.63,2.08A17.37,17.37,0,0,1,41.28,39Z" transform="translate(-17.82 -1.96)" fill="#fff" fill-rule="evenodd"/>
    <path d="M24.89,39.4c.47,1,.88,2,2.35,2a3.16,3.16,0,0,1-.63,2.18c-2,0-2.2-1.61-2.54-3.17C24.29,40,24.71,39.83,24.89,39.4Z" transform="translate(-17.82 -1.96)" fill="#fff" fill-rule="evenodd"/>
    <path d="M41.64,39.67c.31-.06.15.34.37.37-.63.52-1.17,1.6-1.82,1.81C40.17,41,41.26,40.45,41.64,39.67Z" transform="translate(-17.82 -1.96)" fill="#fff" fill-rule="evenodd"/>
    <path d="M33.13,40.4a4.15,4.15,0,0,1,1.45,3.53C32.46,44.43,32.25,41.5,33.13,40.4Z" transform="translate(-17.82 -1.96)" fill="#fff" fill-rule="evenodd"/>
    <path d="M29.24,40.49a2.57,2.57,0,0,0,2.08.81C31.56,44.08,28,42.61,29.24,40.49Z" transform="translate(-17.82 -1.96)" fill="#fff" fill-rule="evenodd"/>
    <path d="M42.1,40.58c.2.1,0,.57.09.81-.65.15-.58,1-1.45.91A20.54,20.54,0,0,1,42.1,40.58Z" transform="translate(-17.82 -1.96)" fill="#fff" fill-rule="evenodd"/>
    <path d="M28.42,40.94c.25.31-.06.69.09,1C28.23,41.85,28.12,41.06,28.42,40.94Z" transform="translate(-17.82 -1.96)" fill="#fff" fill-rule="evenodd"/>
    <path d="M38.74,41.3c1.2,2.13-1.34,4.87-2.71,2.63a3,3,0,0,0,.18-1.18c.73.18.74.9,1.45.82S38.71,42.32,38.74,41.3Z" transform="translate(-17.82 -1.96)" fill="#fff" fill-rule="evenodd"/>
    <path d="M28.42,42.48c1.23.78,2.9,3,1.63,4.8a4.25,4.25,0,0,1-1.81,0C27,46.17,27.43,43.51,28.42,42.48Z" transform="translate(-17.82 -1.96)" fill="#fff" fill-rule="evenodd"/>
    <path d="M39.65,42.57c.5.23.44.55.09.91C39.54,43.35,39.71,42.85,39.65,42.57Z" transform="translate(-17.82 -1.96)" fill="#fff" fill-rule="evenodd"/>
    <path d="M43.73,42.84c.45.25.61.78,1.17.91a8.37,8.37,0,0,0-1.08,1.9c-1.47.26-2.27-.92-1.45-1.9A1.53,1.53,0,0,0,43.73,42.84Z" transform="translate(-17.82 -1.96)" fill="#fff" fill-rule="evenodd"/>
    <path d="M34.4,45.2c.27,1.55-2,1.07-2.63.63a6,6,0,0,1-.63-2.35c.18-.09.38-.16.45-.36C32.14,44.2,32.62,45.34,34.4,45.2Z" transform="translate(-17.82 -1.96)" fill="#fff" fill-rule="evenodd"/>
    <path d="M40.56,43.3c.22.58-.93,1.28-1.45,1.72C39.6,44.46,40.08,43.88,40.56,43.3Z" transform="translate(-17.82 -1.96)" fill="#fff" fill-rule="evenodd"/>
    <path d="M50.88,43.39c1.69,1.78-1.19,5.69-3,5.16s.33-4.1,1.36-4.8A2.8,2.8,0,0,1,50.88,43.39ZM48.71,48c.36-.25-.1-.62-.09-1,0-.54.41-1.06.18-1.54C47.89,45.54,47.72,47.89,48.71,48Z" transform="translate(-17.82 -1.96)" fill="#fff" fill-rule="evenodd"/>
    <path d="M48,43.75a9.38,9.38,0,0,0-1.54,3.71,2.52,2.52,0,0,1-1.35-.18C44.15,45.32,46.21,43,48,43.75Z" transform="translate(-17.82 -1.96)" fill="#fff" fill-rule="evenodd"/>
    <path d="M41.46,43.66c-.2.91-1,2-1.72,1.81A4.9,4.9,0,0,1,41.46,43.66Z" transform="translate(-17.82 -1.96)" fill="#fff" fill-rule="evenodd"/>
    <path d="M35.67,44.47A2.79,2.79,0,0,0,37,45.65c-.23.71-.72,1.15-1,1.81-.26-.47-.35-1.1-.91-1.27C35.21,45.43,35.07,44.83,35.67,44.47Z" transform="translate(-17.82 -1.96)" fill="#fff" fill-rule="evenodd"/>
    <path d="M37.84,51.72a6.94,6.94,0,0,0,1.72-1.9c-.21-.17-.52.11-.82-.09s.28-.4.28-.73-.41,0-.55.09a6.31,6.31,0,0,1,0-2.08c-.57,0-.42.79-.54,1.27-.5.29-.91,1.13-1.45,1.08,0-1.68,1.52-1.92,2.08-3.08-.6-.3-.87.52-1.35.64a4.72,4.72,0,0,1,1.26-1.09C41,46.25,40.56,51.87,37.84,51.72Z" transform="translate(-17.82 -1.96)" fill="#fff" fill-rule="evenodd"/>
    <path d="M35,47c.36,1.27.34,2.92-.63,3.53C32.64,50.29,33,46.65,35,47Z" transform="translate(-17.82 -1.96)" fill="#fff" fill-rule="evenodd"/>
    <path d="M44.63,51.45A22.23,22.23,0,0,0,42.55,49c.51-.36.83-.92,1.54-1.08C45.13,48.4,46,50.63,44.63,51.45Z" transform="translate(-17.82 -1.96)" fill="#fff" fill-rule="evenodd"/>
    <path d="M45.54,48.28c.24.18.79,0,1.17.09a1.6,1.6,0,0,0,1.45,1c-1,.07-1.36.75-1.9,1.27A3.66,3.66,0,0,0,45.54,48.28Z" transform="translate(-17.82 -1.96)" fill="#fff" fill-rule="evenodd"/>
    <path d="M37.84,48.91c.59.81-.72,1.1-.91,1.72-.17-.06-.24-.24-.27-.45C37,49.72,37.57,49.46,37.84,48.91Z" transform="translate(-17.82 -1.96)" fill="#fff" fill-rule="evenodd"/>
    <path d="M49.07,49.18c.2,0,0,.32.09.46a1.46,1.46,0,0,0-.63-.19C48.6,49.26,49,49.38,49.07,49.18Z" transform="translate(-17.82 -1.96)" fill="#fff" fill-rule="evenodd"/>
    <path d="M38.84,50.18c-.37.51-.9.85-1.27,1.36-.19,0-.18-.25-.36-.27C37.62,50.77,38.07,49.76,38.84,50.18Z" transform="translate(-17.82 -1.96)" fill="#fff" fill-rule="evenodd"/>
    <path d="M31.77,50.18c.51.46.71,1.22,1.63,1.27a4.64,4.64,0,0,0-1,2.08C30.75,53.48,30.62,50.86,31.77,50.18Z" transform="translate(-17.82 -1.96)" fill="#fff" fill-rule="evenodd"/>
    <path d="M42,50.27c.56,0,1.38.71,1.72,1.63.26.7.47,2.49-.18,3-.82.62-2.29-.19-2.63-1.18C40.51,52.53,40.72,50.36,42,50.27Z" transform="translate(-17.82 -1.96)" fill="#fff" fill-rule="evenodd"/>
    <path d="M49,50.72c.29,1.63-.55,2.9-2.08,3C46.53,52.08,47.34,50.05,49,50.72Z" transform="translate(-17.82 -1.96)" fill="#fff" fill-rule="evenodd"/>
    <path d="M34.94,51.63c1.59-.08,1.17,4-.09,4.25C32.9,56.22,32.61,51.75,34.94,51.63Z" transform="translate(-17.82 -1.96)" fill="#fff" fill-rule="evenodd"/>
    <path d="M45.36,52.26c-.13.35-.21,1.33.09,1.54-.06.19-.43.06-.46.27a15.93,15.93,0,0,1-.18-1.63C45,52.39,45.07,52.22,45.36,52.26Z" transform="translate(-17.82 -1.96)" fill="#fff" fill-rule="evenodd"/>
    <path d="M36.93,52.44c.16.15.41.2.55.37-.21.3-.14.89-.55,1Z" transform="translate(-17.82 -1.96)" fill="#fff" fill-rule="evenodd"/>
    <path d="M38.93,52.81c1-.1,1.82,3.28.54,3.62C37.93,56.84,37.44,53,38.93,52.81Z" transform="translate(-17.82 -1.96)" fill="#fff" fill-rule="evenodd"/>
    <path d="M36.84,54.53c.32,1.52,1.72,3.79.27,5.16-1.81.16-2.1-1.22-2.26-2.72A2.81,2.81,0,0,0,36.84,54.53Z" transform="translate(-17.82 -1.96)" fill="#fff" fill-rule="evenodd"/>
    <path d="M45.45,59.69c-.67-1.41-.5-4.34.63-5.07,2.08.11,2.4,3.66,1.18,5A2,2,0,0,1,45.45,59.69Z" transform="translate(-17.82 -1.96)" fill="#fff" fill-rule="evenodd"/>
    <path d="M44.45,55.34a12.55,12.55,0,0,0-.18,2.54A2.91,2.91,0,0,1,44.45,55.34Z" transform="translate(-17.82 -1.96)" fill="#fff" fill-rule="evenodd"/>
    <path d="M42.28,56.07c1.1.65.73,3.15-.18,3.8C40.68,59.59,40.93,56.21,42.28,56.07Z" transform="translate(-17.82 -1.96)" fill="#fff" fill-rule="evenodd"/>
    <path d="M43.55,60.05c1.76-.74,2.7,4.17,0,3.53C42.2,63.27,42.56,60.47,43.55,60.05Z" transform="translate(-17.82 -1.96)" fill="#fff" fill-rule="evenodd"/>
    <path d="M42.1,61.05a3,3,0,0,0,.36,2.8c-.2.48-.3.92-.73,1C39.92,65.18,40.38,60.56,42.1,61.05Z" transform="translate(-17.82 -1.96)" fill="#fff" fill-rule="evenodd"/>
    <path d="M43.27,64.4c.5.29,1.37.09,1.72.09,1,2.43-2.12,3.21-2.71,1.36C42.57,65.32,43.13,65.07,43.27,64.4Z" transform="translate(-17.82 -1.96)" fill="#fff" fill-rule="evenodd"/>
    <path d="M29.42,3.81C30,5.31,30.38,7,32,7.43A3.45,3.45,0,0,1,29.42,3.81Z" transform="translate(-17.82 -1.96)" fill="#fff" fill-rule="evenodd"/>
    <path d="M41.64,13.41c-.41.67-1.63,1.33-2,2.35C39.2,14.54,40.82,14,41.64,13.41Z" transform="translate(-17.82 -1.96)" fill="#fff" fill-rule="evenodd"/>
    <path d="M37.3,15.22c-.14.47-.56-.19-.82-.18a5.37,5.37,0,0,0-4.07,1.27C33,15.22,35.69,14.27,37.3,15.22Z" transform="translate(-17.82 -1.96)" fill="#fff" fill-rule="evenodd"/>
    <path d="M43.55,15.94c.45,1-.54,2-1.09,2.54A6.73,6.73,0,0,0,43.55,15.94Z" transform="translate(-17.82 -1.96)" fill="#fff" fill-rule="evenodd"/>
    <path d="M39.47,16.76c.41.4.61,1,1,1.45C40,18.23,39.62,17.37,39.47,16.76Z" transform="translate(-17.82 -1.96)" fill="#fff" fill-rule="evenodd"/>
    <path d="M45.45,22.74c.38.19-.33.56-.46.81C44.83,23.64,45.41,23,45.45,22.74Z" transform="translate(-17.82 -1.96)" fill="#fff" fill-rule="evenodd"/>
    <path d="M46,23c.37.18-.24.65-.45.81S45.92,23.27,46,23Z" transform="translate(-17.82 -1.96)" fill="#fff" fill-rule="evenodd"/>
    <path d="M48.71,27.27c.11-1.61.64-2.81,2.62-2.54A2.4,2.4,0,0,1,52.24,26,4.61,4.61,0,0,0,50,28.44C49.54,28.07,49.13,27.66,48.71,27.27Zm1,.72a3.86,3.86,0,0,1,1.72-2.26C50.38,25.19,49.07,27.15,49.7,28Z" transform="translate(-17.82 -1.96)" fill="#fff" fill-rule="evenodd"/>
    <path d="M45.72,25.27c.26.48-.46.75-.63,1.09A8.28,8.28,0,0,1,45.72,25.27Z" transform="translate(-17.82 -1.96)" fill="#fff" fill-rule="evenodd"/>
    <path d="M46.08,26c0,.6-.57.69-.72,1.17A1.94,1.94,0,0,1,46.08,26Z" transform="translate(-17.82 -1.96)" fill="#fff" fill-rule="evenodd"/>
    <path d="M45.18,31.43c-.86.2-1,1.13-1.73,1.45-.28-.49.69-1.07,1.09-1.45,0-.36-.42-.24-.54-.45,0-.79-.4-2.11.09-3,0-.36-.32.1-.27-.27.12,0,.14-.16.27-.18.29-.08.13.29.27.36,2.37-.34,1.25,3.84.45,4.53C44.31,32.86,44.78,32.15,45.18,31.43Z" transform="translate(-17.82 -1.96)" fill="#fff" fill-rule="evenodd"/>
    <path d="M43.55,28.08c.09.67-.63,1.31-1.18,1.63C42.58,29,43.27,28.74,43.55,28.08Z" transform="translate(-17.82 -1.96)" fill="#fff" fill-rule="evenodd"/>
    <path d="M35.3,32.07c.27.72-1,.64-1.26,1.17C34.06,32.81,35.05,32.57,35.3,32.07Z" transform="translate(-17.82 -1.96)" fill="#fff" fill-rule="evenodd"/>
    <path d="M46.35,32.16a1.45,1.45,0,0,1,.46.81,1.29,1.29,0,0,0-1,.27C45.68,32.93,46.34,32.63,46.35,32.16Z" transform="translate(-17.82 -1.96)" fill="#fff" fill-rule="evenodd"/>
    <path d="M45.09,33.61c.22.17-.32.34-.28.63-.24.07-.18-.18-.36-.18C44.62,33.86,44.94,33.82,45.09,33.61Z" transform="translate(-17.82 -1.96)" fill="#fff" fill-rule="evenodd"/>
    <path d="M41.82,34.06c-.53.55-.4,1.77-.45,2.81-.47-.72.1-1.95-.09-3,.46,0,.82.15.91.54a1.36,1.36,0,0,0-.27.36C41.71,34.72,41.88,34.27,41.82,34.06Z" transform="translate(-17.82 -1.96)" fill="#fff" fill-rule="evenodd"/>
    <path d="M40.56,37.68c.06.49-.77.86-.64,1.72.73-.23.78-1.15,1.36-1.54,2,0,3.46,4.91.45,5-.08-.33.38-.75.73-.72.5-1-.05-2.28-.36-3.08-.12-.13-.4-.09-.64-.09a.33.33,0,0,0,0-.45c-1.08.19-1.35,1.65-2.17,1.81A2.87,2.87,0,0,1,40.56,37.68Z" transform="translate(-17.82 -1.96)" fill="#fff" fill-rule="evenodd"/>
    <path d="M37.93,39.4c0,.31-.65.68-.91,1C37,40.07,37.71,39.75,37.93,39.4Z" transform="translate(-17.82 -1.96)" fill="#fff" fill-rule="evenodd"/>
    <path d="M41.46,45.92c.21.27-.32.58-.36.91C40.9,46.88,41.37,46.17,41.46,45.92Z" transform="translate(-17.82 -1.96)" fill="#fff" fill-rule="evenodd"/>
  </g>
</svg>
